<?xml version="1.0" encoding="utf-8"?>
<!-- Generator: Adobe Illustrator 23.0.1, SVG Export Plug-In . SVG Version: 6.00 Build 0)  -->
<svg version="1.1" id="Ebene_1" xmlns="http://www.w3.org/2000/svg" xmlns:xlink="http://www.w3.org/1999/xlink" x="0px" y="0px"
	 viewBox="0 0 114 114.1" style="enable-background:new 0 0 114 114.1;" xml:space="preserve">
<style type="text/css">
	.st0{enable-background:new    ;}
	.st1{fill:#FFFFFF;}
</style>
<title>digital</title>
<g class="st0">
	<path class="st1" d="M3.9,11.7c0-1.3,0.1-2.5,0.4-3.5c0.3-1,0.6-1.8,1.1-2.4c0.5-0.6,1-1.1,1.7-1.4c0.6-0.3,1.4-0.5,2.2-0.5
		c0.8,0,1.5,0.2,2.2,0.5C12,4.7,12.6,5.2,13,5.8s0.8,1.4,1.1,2.4c0.3,1,0.4,2.1,0.4,3.5c0,1.3-0.1,2.5-0.4,3.5
		c-0.3,1-0.6,1.8-1.1,2.4c-0.5,0.6-1,1.1-1.7,1.4c-0.7,0.3-1.4,0.5-2.2,0.5c-0.8,0-1.5-0.2-2.2-0.5s-1.2-0.8-1.7-1.4
		c-0.5-0.6-0.8-1.4-1.1-2.4C4,14.1,3.9,13,3.9,11.7z M5.9,11.7c0,2,0.3,3.4,0.8,4.5c0.5,1,1.3,1.6,2.4,1.6c1.1,0,2-0.5,2.5-1.6
		c0.6-1,0.8-2.5,0.8-4.5c0-2-0.3-3.4-0.8-4.5c-0.6-1-1.4-1.6-2.5-1.6c-1.1,0-1.9,0.5-2.4,1.6C6.2,8.2,5.9,9.7,5.9,11.7z"/>
	<path class="st1" d="M17,7.3c0.8-0.3,1.6-0.7,2.4-1.2c0.8-0.5,1.5-1.1,2.1-1.9h1.4v13.2h2.8v1.7h-8v-1.7h3.2V7
		c-0.2,0.2-0.4,0.3-0.6,0.5c-0.2,0.2-0.5,0.3-0.8,0.5c-0.3,0.2-0.6,0.3-0.9,0.5c-0.3,0.1-0.6,0.3-0.9,0.4L17,7.3z"/>
	<path class="st1" d="M29,7.3c0.8-0.3,1.6-0.7,2.4-1.2c0.8-0.5,1.5-1.1,2.1-1.9h1.4v13.2h2.8v1.7h-8v-1.7h3.2V7
		c-0.2,0.2-0.4,0.3-0.6,0.5c-0.2,0.2-0.5,0.3-0.8,0.5c-0.3,0.2-0.6,0.3-0.9,0.5c-0.3,0.1-0.6,0.3-0.9,0.4L29,7.3z"/>
	<path class="st1" d="M39.9,11.7c0-1.3,0.1-2.5,0.4-3.5c0.3-1,0.6-1.8,1.1-2.4c0.5-0.6,1-1.1,1.7-1.4c0.6-0.3,1.4-0.5,2.2-0.5
		c0.8,0,1.5,0.2,2.2,0.5C48,4.7,48.6,5.2,49,5.8s0.8,1.4,1.1,2.4c0.3,1,0.4,2.1,0.4,3.5c0,1.3-0.1,2.5-0.4,3.5
		c-0.3,1-0.6,1.8-1.1,2.4c-0.5,0.6-1,1.1-1.7,1.4c-0.7,0.3-1.4,0.5-2.2,0.5c-0.8,0-1.5-0.2-2.2-0.5s-1.2-0.8-1.7-1.4
		c-0.5-0.6-0.8-1.4-1.1-2.4C40,14.1,39.9,13,39.9,11.7z M41.9,11.7c0,2,0.3,3.4,0.8,4.5c0.5,1,1.3,1.6,2.4,1.6c1.1,0,2-0.5,2.5-1.6
		c0.6-1,0.8-2.5,0.8-4.5c0-2-0.3-3.4-0.8-4.5c-0.6-1-1.4-1.6-2.5-1.6c-1.1,0-1.9,0.5-2.4,1.6C42.2,8.2,41.9,9.7,41.9,11.7z"/>
	<path class="st1" d="M53,7.3c0.8-0.3,1.6-0.7,2.4-1.2c0.8-0.5,1.5-1.1,2.1-1.9h1.4v13.2h2.8v1.7h-8v-1.7h3.2V7
		c-0.2,0.2-0.4,0.3-0.6,0.5c-0.2,0.2-0.5,0.3-0.8,0.5c-0.3,0.2-0.6,0.3-0.9,0.5c-0.3,0.1-0.6,0.3-0.9,0.4L53,7.3z"/>
	<path class="st1" d="M65,7.3c0.8-0.3,1.6-0.7,2.4-1.2c0.8-0.5,1.5-1.1,2.1-1.9h1.4v13.2h2.8v1.7h-8v-1.7h3.2V7
		c-0.2,0.2-0.4,0.3-0.6,0.5c-0.2,0.2-0.5,0.3-0.8,0.5c-0.3,0.2-0.6,0.3-0.9,0.5c-0.3,0.1-0.6,0.3-0.9,0.4L65,7.3z"/>
	<path class="st1" d="M75.9,11.7c0-1.3,0.1-2.5,0.4-3.5c0.3-1,0.6-1.8,1.1-2.4s1-1.1,1.7-1.4c0.6-0.3,1.4-0.5,2.2-0.5
		c0.8,0,1.5,0.2,2.2,0.5C84,4.7,84.6,5.2,85,5.8s0.8,1.4,1.1,2.4c0.3,1,0.4,2.1,0.4,3.5c0,1.3-0.1,2.5-0.4,3.5
		c-0.3,1-0.6,1.8-1.1,2.4c-0.5,0.6-1,1.1-1.7,1.4s-1.4,0.5-2.2,0.5c-0.8,0-1.5-0.2-2.2-0.5c-0.6-0.3-1.2-0.8-1.7-1.4
		c-0.5-0.6-0.8-1.4-1.1-2.4C76,14.1,75.9,13,75.9,11.7z M77.9,11.7c0,2,0.3,3.4,0.8,4.5c0.5,1,1.3,1.6,2.4,1.6c1.1,0,2-0.5,2.5-1.6
		c0.6-1,0.8-2.5,0.8-4.5c0-2-0.3-3.4-0.8-4.5c-0.6-1-1.4-1.6-2.5-1.6c-1.1,0-1.9,0.5-2.4,1.6C78.2,8.2,77.9,9.7,77.9,11.7z"/>
	<path class="st1" d="M89,7.3c0.8-0.3,1.6-0.7,2.4-1.2c0.8-0.5,1.5-1.1,2.1-1.9h1.4v13.2h2.8v1.7h-8v-1.7h3.2V7
		c-0.2,0.2-0.4,0.3-0.6,0.5c-0.2,0.2-0.5,0.3-0.8,0.5c-0.3,0.2-0.6,0.3-0.9,0.5c-0.3,0.1-0.6,0.3-0.9,0.4L89,7.3z"/>
	<path class="st1" d="M101,7.3c0.8-0.3,1.6-0.7,2.4-1.2c0.8-0.5,1.5-1.1,2.1-1.9h1.4v13.2h2.8v1.7h-8v-1.7h3.2V7
		c-0.2,0.2-0.4,0.3-0.6,0.5c-0.2,0.2-0.5,0.3-0.8,0.5c-0.3,0.2-0.6,0.3-0.9,0.5c-0.3,0.1-0.6,0.3-0.9,0.4L101,7.3z"/>
	<path class="st1" d="M5,36.1c0.8-0.3,1.6-0.7,2.4-1.2c0.8-0.5,1.5-1.1,2.1-1.9h1.4v13.2h2.8v1.7h-8v-1.7h3.2V35.8
		c-0.2,0.2-0.4,0.3-0.6,0.5c-0.2,0.2-0.5,0.3-0.8,0.5c-0.3,0.2-0.6,0.3-0.9,0.5c-0.3,0.1-0.6,0.3-0.9,0.4L5,36.1z"/>
	<path class="st1" d="M17,36.1c0.8-0.3,1.6-0.7,2.4-1.2c0.8-0.5,1.5-1.1,2.1-1.9h1.4v13.2h2.8v1.7h-8v-1.7h3.2V35.8
		c-0.2,0.2-0.4,0.3-0.6,0.5c-0.2,0.2-0.5,0.3-0.8,0.5c-0.3,0.2-0.6,0.3-0.9,0.5c-0.3,0.1-0.6,0.3-0.9,0.4L17,36.1z"/>
	<path class="st1" d="M27.9,40.5c0-1.3,0.1-2.5,0.4-3.5c0.3-1,0.6-1.8,1.1-2.4c0.5-0.6,1-1.1,1.7-1.4c0.6-0.3,1.4-0.5,2.2-0.5
		c0.8,0,1.5,0.2,2.2,0.5c0.7,0.3,1.2,0.8,1.7,1.4s0.8,1.4,1.1,2.4c0.3,1,0.4,2.1,0.4,3.5s-0.1,2.5-0.4,3.5c-0.3,1-0.6,1.8-1.1,2.4
		c-0.5,0.6-1,1.1-1.7,1.4c-0.7,0.3-1.4,0.5-2.2,0.5c-0.8,0-1.5-0.2-2.2-0.5c-0.6-0.3-1.2-0.8-1.7-1.4c-0.5-0.6-0.8-1.4-1.1-2.4
		C28,42.9,27.9,41.8,27.9,40.5z M29.9,40.5c0,2,0.3,3.4,0.8,4.5c0.5,1,1.3,1.6,2.4,1.6c1.1,0,2-0.5,2.5-1.6c0.6-1,0.8-2.5,0.8-4.5
		c0-2-0.3-3.4-0.8-4.5c-0.6-1-1.4-1.6-2.5-1.6c-1.1,0-1.9,0.5-2.4,1.6C30.2,37,29.9,38.5,29.9,40.5z"/>
	<path class="st1" d="M39.9,40.5c0-1.3,0.1-2.5,0.4-3.5c0.3-1,0.6-1.8,1.1-2.4c0.5-0.6,1-1.1,1.7-1.4c0.6-0.3,1.4-0.5,2.2-0.5
		c0.8,0,1.5,0.2,2.2,0.5c0.7,0.3,1.2,0.8,1.7,1.4s0.8,1.4,1.1,2.4c0.3,1,0.4,2.1,0.4,3.5s-0.1,2.5-0.4,3.5c-0.3,1-0.6,1.8-1.1,2.4
		c-0.5,0.6-1,1.1-1.7,1.4c-0.7,0.3-1.4,0.5-2.2,0.5c-0.8,0-1.5-0.2-2.2-0.5c-0.6-0.3-1.2-0.8-1.7-1.4c-0.5-0.6-0.8-1.4-1.1-2.4
		C40,42.9,39.9,41.8,39.9,40.5z M41.9,40.5c0,2,0.3,3.4,0.8,4.5c0.5,1,1.3,1.6,2.4,1.6c1.1,0,2-0.5,2.5-1.6c0.6-1,0.8-2.5,0.8-4.5
		c0-2-0.3-3.4-0.8-4.5c-0.6-1-1.4-1.6-2.5-1.6c-1.1,0-1.9,0.5-2.4,1.6C42.2,37,41.9,38.5,41.9,40.5z"/>
	<path class="st1" d="M53,36.1c0.8-0.3,1.6-0.7,2.4-1.2c0.8-0.5,1.5-1.1,2.1-1.9h1.4v13.2h2.8v1.7h-8v-1.7h3.2V35.8
		c-0.2,0.2-0.4,0.3-0.6,0.5c-0.2,0.2-0.5,0.3-0.8,0.5c-0.3,0.2-0.6,0.3-0.9,0.5c-0.3,0.1-0.6,0.3-0.9,0.4L53,36.1z"/>
	<path class="st1" d="M65,36.1c0.8-0.3,1.6-0.7,2.4-1.2c0.8-0.5,1.5-1.1,2.1-1.9h1.4v13.2h2.8v1.7h-8v-1.7h3.2V35.8
		c-0.2,0.2-0.4,0.3-0.6,0.5c-0.2,0.2-0.5,0.3-0.8,0.5s-0.6,0.3-0.9,0.5c-0.3,0.1-0.6,0.3-0.9,0.4L65,36.1z"/>
	<path class="st1" d="M77,36.1c0.8-0.3,1.6-0.7,2.4-1.2c0.8-0.5,1.5-1.1,2.1-1.9h1.4v13.2h2.8v1.7h-8v-1.7h3.2V35.8
		c-0.2,0.2-0.4,0.3-0.6,0.5c-0.2,0.2-0.5,0.3-0.8,0.5s-0.6,0.3-0.9,0.5c-0.3,0.1-0.6,0.3-0.9,0.4L77,36.1z"/>
	<path class="st1" d="M89,36.1c0.8-0.3,1.6-0.7,2.4-1.2c0.8-0.5,1.5-1.1,2.1-1.9h1.4v13.2h2.8v1.7h-8v-1.7h3.2V35.8
		c-0.2,0.2-0.4,0.3-0.6,0.5c-0.2,0.2-0.5,0.3-0.8,0.5s-0.6,0.3-0.9,0.5c-0.3,0.1-0.6,0.3-0.9,0.4L89,36.1z"/>
	<path class="st1" d="M99.9,40.5c0-1.3,0.1-2.5,0.4-3.5c0.3-1,0.6-1.8,1.1-2.4s1-1.1,1.7-1.4c0.6-0.3,1.4-0.5,2.2-0.5
		c0.8,0,1.5,0.2,2.2,0.5c0.7,0.3,1.2,0.8,1.7,1.4s0.8,1.4,1.1,2.4c0.3,1,0.4,2.1,0.4,3.5s-0.1,2.5-0.4,3.5c-0.3,1-0.6,1.8-1.1,2.4
		c-0.5,0.6-1,1.1-1.7,1.4c-0.7,0.3-1.4,0.5-2.2,0.5c-0.8,0-1.5-0.2-2.2-0.5c-0.6-0.3-1.2-0.8-1.7-1.4c-0.5-0.6-0.8-1.4-1.1-2.4
		C100,42.9,99.9,41.8,99.9,40.5z M101.9,40.5c0,2,0.3,3.4,0.8,4.5c0.5,1,1.3,1.6,2.4,1.6c1.1,0,2-0.5,2.5-1.6c0.6-1,0.8-2.5,0.8-4.5
		c0-2-0.3-3.4-0.8-4.5c-0.6-1-1.4-1.6-2.5-1.6c-1.1,0-1.9,0.5-2.4,1.6C102.2,37,101.9,38.5,101.9,40.5z"/>
	<path class="st1" d="M3.9,69.3c0-1.3,0.1-2.5,0.4-3.5c0.3-1,0.6-1.8,1.1-2.4c0.5-0.6,1-1.1,1.7-1.4s1.4-0.5,2.2-0.5
		c0.8,0,1.5,0.2,2.2,0.5c0.7,0.3,1.2,0.8,1.7,1.4c0.5,0.6,0.8,1.4,1.1,2.4c0.3,1,0.4,2.1,0.4,3.5c0,1.3-0.1,2.5-0.4,3.5
		c-0.3,1-0.6,1.8-1.1,2.4s-1,1.1-1.7,1.4C10.7,76.9,10,77,9.2,77c-0.8,0-1.5-0.2-2.2-0.5c-0.6-0.3-1.2-0.8-1.7-1.4
		c-0.5-0.6-0.8-1.4-1.1-2.4C4,71.7,3.9,70.6,3.9,69.3z M5.9,69.3c0,2,0.3,3.4,0.8,4.5c0.5,1,1.3,1.6,2.4,1.6c1.1,0,2-0.5,2.5-1.6
		c0.6-1,0.8-2.5,0.8-4.5c0-2-0.3-3.4-0.8-4.5c-0.6-1-1.4-1.6-2.5-1.6c-1.1,0-1.9,0.5-2.4,1.6C6.2,65.8,5.9,67.3,5.9,69.3z"/>
	<path class="st1" d="M17,64.9c0.8-0.3,1.6-0.7,2.4-1.2c0.8-0.5,1.5-1.1,2.1-1.9h1.4V75h2.8v1.7h-8V75h3.2V64.6
		c-0.2,0.2-0.4,0.3-0.6,0.5c-0.2,0.2-0.5,0.3-0.8,0.5c-0.3,0.2-0.6,0.3-0.9,0.5c-0.3,0.1-0.6,0.3-0.9,0.4L17,64.9z"/>
	<path class="st1" d="M29,64.9c0.8-0.3,1.6-0.7,2.4-1.2c0.8-0.5,1.5-1.1,2.1-1.9h1.4V75h2.8v1.7h-8V75h3.2V64.6
		c-0.2,0.2-0.4,0.3-0.6,0.5c-0.2,0.2-0.5,0.3-0.8,0.5c-0.3,0.2-0.6,0.3-0.9,0.5c-0.3,0.1-0.6,0.3-0.9,0.4L29,64.9z"/>
	<path class="st1" d="M39.9,69.3c0-1.3,0.1-2.5,0.4-3.5c0.3-1,0.6-1.8,1.1-2.4c0.5-0.6,1-1.1,1.7-1.4s1.4-0.5,2.2-0.5
		c0.8,0,1.5,0.2,2.2,0.5c0.7,0.3,1.2,0.8,1.7,1.4c0.5,0.6,0.8,1.4,1.1,2.4c0.3,1,0.4,2.1,0.4,3.5c0,1.3-0.1,2.5-0.4,3.5
		c-0.3,1-0.6,1.8-1.1,2.4s-1,1.1-1.7,1.4C46.7,76.9,46,77,45.2,77c-0.8,0-1.5-0.2-2.2-0.5c-0.6-0.3-1.2-0.8-1.7-1.4
		c-0.5-0.6-0.8-1.4-1.1-2.4C40,71.7,39.9,70.6,39.9,69.3z M41.9,69.3c0,2,0.3,3.4,0.8,4.5c0.5,1,1.3,1.6,2.4,1.6
		c1.1,0,2-0.5,2.5-1.6c0.6-1,0.8-2.5,0.8-4.5c0-2-0.3-3.4-0.8-4.5c-0.6-1-1.4-1.6-2.5-1.6c-1.1,0-1.9,0.5-2.4,1.6
		C42.2,65.8,41.9,67.3,41.9,69.3z"/>
	<path class="st1" d="M53,64.9c0.8-0.3,1.6-0.7,2.4-1.2c0.8-0.5,1.5-1.1,2.1-1.9h1.4V75h2.8v1.7h-8V75h3.2V64.6
		c-0.2,0.2-0.4,0.3-0.6,0.5c-0.2,0.2-0.5,0.3-0.8,0.5c-0.3,0.2-0.6,0.3-0.9,0.5c-0.3,0.1-0.6,0.3-0.9,0.4L53,64.9z"/>
	<path class="st1" d="M65,64.9c0.8-0.3,1.6-0.7,2.4-1.2c0.8-0.5,1.5-1.1,2.1-1.9h1.4V75h2.8v1.7h-8V75h3.2V64.6
		c-0.2,0.2-0.4,0.3-0.6,0.5c-0.2,0.2-0.5,0.3-0.8,0.5c-0.3,0.2-0.6,0.3-0.9,0.5c-0.3,0.1-0.6,0.3-0.9,0.4L65,64.9z"/>
	<path class="st1" d="M75.9,69.3c0-1.3,0.1-2.5,0.4-3.5s0.6-1.8,1.1-2.4c0.5-0.6,1-1.1,1.7-1.4c0.6-0.3,1.4-0.5,2.2-0.5
		c0.8,0,1.5,0.2,2.2,0.5s1.2,0.8,1.7,1.4c0.5,0.6,0.8,1.4,1.1,2.4c0.3,1,0.4,2.1,0.4,3.5c0,1.3-0.1,2.5-0.4,3.5
		c-0.3,1-0.6,1.8-1.1,2.4s-1,1.1-1.7,1.4C82.7,76.9,82,77,81.2,77c-0.8,0-1.5-0.2-2.2-0.5c-0.6-0.3-1.2-0.8-1.7-1.4
		s-0.8-1.4-1.1-2.4S75.9,70.6,75.9,69.3z M77.9,69.3c0,2,0.3,3.4,0.8,4.5c0.5,1,1.3,1.6,2.4,1.6c1.1,0,2-0.5,2.5-1.6
		c0.6-1,0.8-2.5,0.8-4.5c0-2-0.3-3.4-0.8-4.5c-0.6-1-1.4-1.6-2.5-1.6c-1.1,0-1.9,0.5-2.4,1.6C78.2,65.8,77.9,67.3,77.9,69.3z"/>
	<path class="st1" d="M89,64.9c0.8-0.3,1.6-0.7,2.4-1.2c0.8-0.5,1.5-1.1,2.1-1.9h1.4V75h2.8v1.7h-8V75h3.2V64.6
		c-0.2,0.2-0.4,0.3-0.6,0.5c-0.2,0.2-0.5,0.3-0.8,0.5c-0.3,0.2-0.6,0.3-0.9,0.5c-0.3,0.1-0.6,0.3-0.9,0.4L89,64.9z"/>
	<path class="st1" d="M101,64.9c0.8-0.3,1.6-0.7,2.4-1.2c0.8-0.5,1.5-1.1,2.1-1.9h1.4V75h2.8v1.7h-8V75h3.2V64.6
		c-0.2,0.2-0.4,0.3-0.6,0.5c-0.2,0.2-0.5,0.3-0.8,0.5c-0.3,0.2-0.6,0.3-0.9,0.5c-0.3,0.1-0.6,0.3-0.9,0.4L101,64.9z"/>
	<path class="st1" d="M5,93.7c0.8-0.3,1.6-0.7,2.4-1.2c0.8-0.5,1.5-1.1,2.1-1.9h1.4v13.2h2.8v1.7h-8v-1.7h3.2V93.4
		c-0.2,0.2-0.4,0.3-0.6,0.5c-0.2,0.2-0.5,0.3-0.8,0.5c-0.3,0.2-0.6,0.3-0.9,0.5c-0.3,0.1-0.6,0.3-0.9,0.4L5,93.7z"/>
	<path class="st1" d="M17,93.7c0.8-0.3,1.6-0.7,2.4-1.2c0.8-0.5,1.5-1.1,2.1-1.9h1.4v13.2h2.8v1.7h-8v-1.7h3.2V93.4
		c-0.2,0.2-0.4,0.3-0.6,0.5c-0.2,0.2-0.5,0.3-0.8,0.5c-0.3,0.2-0.6,0.3-0.9,0.5c-0.3,0.1-0.6,0.3-0.9,0.4L17,93.7z"/>
	<path class="st1" d="M27.9,98.1c0-1.3,0.1-2.5,0.4-3.5c0.3-1,0.6-1.8,1.1-2.4c0.5-0.6,1-1.1,1.7-1.4s1.4-0.5,2.2-0.5
		c0.8,0,1.5,0.2,2.2,0.5c0.7,0.3,1.2,0.8,1.7,1.4c0.5,0.6,0.8,1.4,1.1,2.4c0.3,1,0.4,2.1,0.4,3.5c0,1.3-0.1,2.5-0.4,3.5
		c-0.3,1-0.6,1.8-1.1,2.4s-1,1.1-1.7,1.4c-0.7,0.3-1.4,0.5-2.2,0.5c-0.8,0-1.5-0.2-2.2-0.5c-0.6-0.3-1.2-0.8-1.7-1.4
		c-0.5-0.6-0.8-1.4-1.1-2.4C28,100.5,27.9,99.4,27.9,98.1z M29.9,98.1c0,2,0.3,3.4,0.8,4.5c0.5,1,1.3,1.6,2.4,1.6
		c1.1,0,2-0.5,2.5-1.6c0.6-1,0.8-2.5,0.8-4.5c0-2-0.3-3.4-0.8-4.5c-0.6-1-1.4-1.6-2.5-1.6c-1.1,0-1.9,0.5-2.4,1.6
		C30.2,94.6,29.9,96.1,29.9,98.1z"/>
	<path class="st1" d="M39.9,98.1c0-1.3,0.1-2.5,0.4-3.5c0.3-1,0.6-1.8,1.1-2.4c0.5-0.6,1-1.1,1.7-1.4s1.4-0.5,2.2-0.5
		c0.8,0,1.5,0.2,2.2,0.5c0.7,0.3,1.2,0.8,1.7,1.4c0.5,0.6,0.8,1.4,1.1,2.4c0.3,1,0.4,2.1,0.4,3.5c0,1.3-0.1,2.5-0.4,3.5
		c-0.3,1-0.6,1.8-1.1,2.4s-1,1.1-1.7,1.4c-0.7,0.3-1.4,0.5-2.2,0.5c-0.8,0-1.5-0.2-2.2-0.5c-0.6-0.3-1.2-0.8-1.7-1.4
		c-0.5-0.6-0.8-1.4-1.1-2.4C40,100.5,39.9,99.4,39.9,98.1z M41.9,98.1c0,2,0.3,3.4,0.8,4.5c0.5,1,1.3,1.6,2.4,1.6
		c1.1,0,2-0.5,2.5-1.6c0.6-1,0.8-2.5,0.8-4.5c0-2-0.3-3.4-0.8-4.5c-0.6-1-1.4-1.6-2.5-1.6c-1.1,0-1.9,0.5-2.4,1.6
		C42.2,94.6,41.9,96.1,41.9,98.1z"/>
	<path class="st1" d="M53,93.7c0.8-0.3,1.6-0.7,2.4-1.2c0.8-0.5,1.5-1.1,2.1-1.9h1.4v13.2h2.8v1.7h-8v-1.7h3.2V93.4
		c-0.2,0.2-0.4,0.3-0.6,0.5c-0.2,0.2-0.5,0.3-0.8,0.5c-0.3,0.2-0.6,0.3-0.9,0.5c-0.3,0.1-0.6,0.3-0.9,0.4L53,93.7z"/>
	<path class="st1" d="M65,93.7c0.8-0.3,1.6-0.7,2.4-1.2c0.8-0.5,1.5-1.1,2.1-1.9h1.4v13.2h2.8v1.7h-8v-1.7h3.2V93.4
		c-0.2,0.2-0.4,0.3-0.6,0.5c-0.2,0.2-0.5,0.3-0.8,0.5c-0.3,0.2-0.6,0.3-0.9,0.5c-0.3,0.1-0.6,0.3-0.9,0.4L65,93.7z"/>
	<path class="st1" d="M77,93.7c0.8-0.3,1.6-0.7,2.4-1.2c0.8-0.5,1.5-1.1,2.1-1.9h1.4v13.2h2.8v1.7h-8v-1.7h3.2V93.4
		c-0.2,0.2-0.4,0.3-0.6,0.5c-0.2,0.2-0.5,0.3-0.8,0.5c-0.3,0.2-0.6,0.3-0.9,0.5c-0.3,0.1-0.6,0.3-0.9,0.4L77,93.7z"/>
	<path class="st1" d="M89,93.7c0.8-0.3,1.6-0.7,2.4-1.2c0.8-0.5,1.5-1.1,2.1-1.9h1.4v13.2h2.8v1.7h-8v-1.7h3.2V93.4
		c-0.2,0.2-0.4,0.3-0.6,0.5c-0.2,0.2-0.5,0.3-0.8,0.5c-0.3,0.2-0.6,0.3-0.9,0.5c-0.3,0.1-0.6,0.3-0.9,0.4L89,93.7z"/>
	<path class="st1" d="M99.9,98.1c0-1.3,0.1-2.5,0.4-3.5s0.6-1.8,1.1-2.4c0.5-0.6,1-1.1,1.7-1.4c0.6-0.3,1.4-0.5,2.2-0.5
		c0.8,0,1.5,0.2,2.2,0.5s1.2,0.8,1.7,1.4c0.5,0.6,0.8,1.4,1.1,2.4c0.3,1,0.4,2.1,0.4,3.5c0,1.3-0.1,2.5-0.4,3.5
		c-0.3,1-0.6,1.8-1.1,2.4s-1,1.1-1.7,1.4c-0.7,0.3-1.4,0.5-2.2,0.5c-0.8,0-1.5-0.2-2.2-0.5c-0.6-0.3-1.2-0.8-1.7-1.4
		s-0.8-1.4-1.1-2.4S99.9,99.4,99.9,98.1z M101.9,98.1c0,2,0.3,3.4,0.8,4.5c0.5,1,1.3,1.6,2.4,1.6c1.1,0,2-0.5,2.5-1.6
		c0.6-1,0.8-2.5,0.8-4.5c0-2-0.3-3.4-0.8-4.5c-0.6-1-1.4-1.6-2.5-1.6c-1.1,0-1.9,0.5-2.4,1.6C102.2,94.6,101.9,96.1,101.9,98.1z"/>
</g>
</svg>
