<svg fill="#FFFFFF" xmlns="http://www.w3.org/2000/svg" xmlns:xlink="http://www.w3.org/1999/xlink" version="1.1" x="0px" y="0px" viewBox="0 0 100 100" style="enable-background:new 0 0 100 100;" xml:space="preserve"><path d="M95.3,18.9c-0.3-0.7-0.7-1.4-1.2-1.9c-0.8-0.8-1.9-1.4-3.1-1.5c-2.2-0.2-8.1,3.3-11.5,5.4c-4.8,3-12,8.1-19.2,15.3  L44.6,51.9c-2,2-2,5.3,0,7.3l0.1,0.1L23.1,80.7c-2,2-2,5.3,0,7.3c2,2,5.3,2,7.3,0l63.7-63.7C95.5,22.9,95.9,20.8,95.3,18.9z"></path><path d="M18.4,49.1l0.2,0.2c0,0,0,0,0,0.1C18.6,49.3,18.5,49.2,18.4,49.1z"></path><path d="M4.7,63.4C4.7,63.4,4.7,63.4,4.7,63.4l-0.3-0.3C4.5,63.2,4.6,63.3,4.7,63.4z"></path><path d="M65.5,57.3l-7.3,7.3l23.6,23.6c2,2,5.3,2,7.3,0c2-2,2-5.3,0-7.3L65.5,57.3z"></path><path d="M25.9,10.9l14.5,14.5c0.1,0.1,0.2,0.2,0.3,0.3c2.3,2.5,3.1,6,2.3,9.1l6.9,6.9l-7.2,7.2L35.8,42c-3.1,0.8-6.6,0-9.1-2.3  c-0.1-0.1-0.2-0.2-0.3-0.3L11.9,24.9c-0.8-0.8-0.8-2,0-2.7c0.8-0.8,2-0.8,2.7,0l14.5,14.5l0,0l0.1,0.1c0.8,0.8,2,1,2.8,0.2  c0.8-0.8,0.8-2.2,0-3L17.5,19.2c-0.8-0.8-0.8-2,0-2.7c0.8-0.8,2-0.8,2.7,0l14.6,14.6c0.8,0.8,2.1,0.9,3,0c0.8-0.8,0.7-2.1-0.1-2.9  l-0.1-0.1l0,0L23.2,13.6c-0.8-0.8-0.7-2,0-2.7C23.9,10.1,25.1,10.1,25.9,10.9z"></path><path d="M95.3,18.9c-0.3-0.7-0.7-1.4-1.2-1.9c-0.8-0.8-1.9-1.4-3.1-1.5c-2.2-0.2-8.1,3.3-11.5,5.4c-4.8,3-12,8.1-19.2,15.3  L44.6,51.9c-2,2-2,5.3,0,7.3l0.1,0.1L23.1,80.7c-2,2-2,5.3,0,7.3c2,2,5.3,2,7.3,0l63.7-63.7C95.5,22.9,95.9,20.8,95.3,18.9z"></path></svg>