<svg fill="#FFFFFF" xmlns="http://www.w3.org/2000/svg" xmlns:xlink="http://www.w3.org/1999/xlink" version="1.1" x="0px" y="0px" viewBox="0 0 50 50" enable-background="new 0 0 50 50" xml:space="preserve"><g><path d="M14.8001,40.0733c-1.2631,0.3969-5.2422,1.9163-5.0223,3.2328c0.0581,0.3511,0.3061,0.6407,0.6431,0.7532   c1.38,0.4598,2.9789,0.6933,4.6754,0.6933c3.1414,0,6.5204-0.7973,9.1469-2.2902c0.2766,2.0148,0.0594,4.0257-0.6232,6.0428h2.9712   c-0.6116-1.9302-0.7418-3.9366-0.511-6.0019c1.662,0.9274,3.6802,1.6196,5.8278,1.976c2.5682,0.4269,5.4587,0.4002,7.929-0.4196   c0.7297-0.2422,0.8928-1.205,0.2817-1.673c-1.2996-0.9971-2.9572-1.8024-4.7923-2.3627   c6.2172-2.2596,10.9021-5.9645,13.4923-9.5519c0.4417-0.6125,0.0341-1.4745-0.7205-1.5202   c-3.3824-0.2087-7.2698,0.5114-11.0656,1.9942c4.5053-6.4501,6.561-12.7393,6.925-17.7761c0.0548-0.7585-0.756-1.2765-1.418-0.9117   c-4.7844,2.6155-9.3796,7.2574-12.8326,12.8417c0.0691-1.1564,0.1121-2.3239,0.1121-3.5037c0-7.3856-1.3589-14.3325-3.8264-19.5614   c-0.3633-0.7708-1.422-0.6683-1.7372,0.0014c-2.9747,6.3328-4.2866,15.0018-3.6849,23.5452   C17.1004,19.8184,12.3425,14.927,7.45,12.2579c-0.6686-0.3641-1.472,0.1568-1.4175,0.9122   c0.3741,5.1746,2.4868,10.9838,5.9489,16.3575c0.3076,0.4777,0.6459,0.9429,0.975,1.412   c-3.7836-1.4797-7.6676-2.1972-11.0545-1.9877c-0.7535,0.0456-1.1618,0.9053-0.7214,1.5188   C3.7613,34.0595,8.502,37.8226,14.8001,40.0733z M13.2615,42.7266c1.5844-0.7677,3.4773-1.3035,5.4587-1.5341   c0.9504,0.2018,1.8784,0.3453,2.7831,0.436C18.7643,42.6982,15.7717,43.0319,13.2615,42.7266z M36.9953,42.7261   c-2.6786,0.3256-5.7709-0.1046-8.3137-1.1076c0.239-0.026,1.6289-0.2108,2.699-0.4477   C33.3925,41.3837,35.3627,41.9373,36.9953,42.7261z M46.0417,30.8574c-3.9661,4.4213-10.7947,8.0147-17.2676,8.8053   c2.0081-1.4958,3.9462-3.3286,5.7863-5.4879C38.3531,32.1923,42.4264,31.0233,46.0417,30.8574z M41.8277,14.9246   c-1.3892,9.0441-7.9797,19.1721-15.5161,24.1248C27.7115,30.0338,34.1805,19.9349,41.8277,14.9246z M25.128,4.9017   c1.7953,4.6885,2.7712,10.5206,2.7712,16.6946c0,2.6911-0.1866,5.332-0.5546,7.8516c-1.0073,2.1567-1.7972,4.3387-2.3452,6.4688   c-0.4669-1.8216-1.1189-3.6834-1.95-5.5678C21.6241,21.661,22.4453,11.9667,25.128,4.9017z M8.163,14.9246   c7.4691,4.9031,14.0962,14.9255,15.5057,24.111c-3.993-2.6245-7.4755-6.5135-10.0729-10.5477   C10.7252,24.0328,8.8328,19.2886,8.163,14.9246z M15.4345,34.1761c1.8385,2.1591,3.7783,3.9967,5.7803,5.4871   c-0.7358-0.0898-1.4875-0.2111-2.2607-0.3805c-5.4645-1.189-11.3325-4.3267-15.0005-8.4258   C7.5806,31.0207,11.6547,32.1906,15.4345,34.1761z"></path></g></svg>