<svg fill="#FFFFFF" xmlns:dc="http://purl.org/dc/elements/1.1/" xmlns:cc="http://creativecommons.org/ns#" xmlns:rdf="http://www.w3.org/1999/02/22-rdf-syntax-ns#" xmlns:svg="http://www.w3.org/2000/svg" xmlns="http://www.w3.org/2000/svg" xmlns:sodipodi="http://sodipodi.sourceforge.net/DTD/sodipodi-0.dtd" xmlns:inkscape="http://www.inkscape.org/namespaces/inkscape" version="1.1" x="0px" y="0px" viewBox="0 0 100 100"><g transform="translate(0,-952.36218)"><path style="color:#000000;enable-background:accumulate;" d="m 50,954.36215 c -1.1046,0 -2,0.8954 -2,2 l 0,8 c 0,1.1046 0.8954,2 2,2 1.1046,0 2,-0.8954 2,-2 l 0,-8 c 0,-1.1046 -0.8954,-2 -2,-2 z M 21.7188,966.0809 c -0.5119,0 -1.0157,0.20315 -1.4063,0.59375 -0.781,0.781 -0.781,2.0314 0,2.8125 l 5.6563,5.65625 c 0.7808,0.781 2.0314,0.781 2.8124,0 0.7811,-0.781 0.7811,-2.0314 0,-2.8125 l -5.6562,-5.65625 c -0.3905,-0.3906 -0.8945,-0.59375 -1.4062,-0.59375 z m 56.5624,0 c -0.5117,0 -1.0156,0.20315 -1.4062,0.59375 l -5.6562,5.65625 c -0.7811,0.7811 -0.7811,2.0315 0,2.8125 0.781,0.781 2.0315,0.781 2.8124,0 l 5.6563,-5.65625 c 0.781,-0.7811 0.781,-2.0315 0,-2.8125 -0.3906,-0.3906 -0.8943,-0.59375 -1.4063,-0.59375 z M 50,972.36215 c -12.1952,0 -24,9.46145 -24,22.84375 0,16.3749 11.5581,20.5395 12.875,31.1563 l 22.25,0 C 62.4419,1015.7454 74,1011.5808 74,995.2059 74,981.8236 62.1952,972.36215 50,972.36215 z m -2.2188,5.125 c 1.3034,-0.0617 2.4089,0.60054 2.375,1.90625 0.033,1.0472 -0.8903,2.02978 -1.9374,2.0625 C 40.7586,982.326 35,988.64869 35,996.36215 c 0,1.53619 0.2282,3.01139 0.6562,4.40625 0.4167,1.0267 -0.221,2.3347 -1.2812,2.6563 -1.0602,0.3215 -2.3075,-0.415 -2.5312,-1.5 C 31.3013,1000.1593 31,998.30436 31,996.36215 c 0,-9.71734 7.3397,-17.7737 16.7812,-18.875 z m -37.7812002,16.875 c -1.1046,0 -2,0.8954 -2,2 0,1.1046 0.8954,2 2,2 l 8.0000002,0 c 1.1046,0 2,-0.8954 2,-2 0,-1.1046 -0.8954,-2 -2,-2 l -8.0000003,0 z m 72.0000002,0 c -1.1046,0 -2,0.8954 -2,2 0,1.1046 0.8954,2 2,2 l 8,0 c 1.1046,0 2,-0.8954 2,-2 0,-1.1046 -0.8954,-2 -2,-2 l -8,0 z m -43,36.00005 0,4 22,0 0,-4 -22,0 z m 0,8 0,2 c 0,2.2981 1.8895,4 4,4 l 3,0 0,2 c 0,2.216 1.784,4 4,4 2.216,0 4,-1.784 4,-4 l 0,-2 3,0 c 2.1105,0 4,-1.7019 4,-4 l 0,-2 -22,0 z" fill="#FFFFFF" stroke="none" marker="none" visibility="visible" display="inline" overflow="visible"></path></g></svg>