<svg fill="#FFFFFF" xmlns="http://www.w3.org/2000/svg" xmlns:xlink="http://www.w3.org/1999/xlink" version="1.1" x="0px" y="0px" viewBox="0 0 64 64" style="enable-background:new 0 0 64 64;" xml:space="preserve"><style type="text/css">
	.st0{display:none;}
	.st1{display:inline;}
	.st2{fill:none;stroke:#FFFFFF;stroke-width:0.1;stroke-miterlimit:10;}
</style><g class="st0"><g class="st1"><rect x="2" y="2" class="st2" width="60" height="60"></rect><line class="st2" x1="32" y1="2" x2="32" y2="62"></line><line class="st2" x1="62" y1="32" x2="2" y2="32"></line><line class="st2" x1="2" y1="2" x2="62" y2="62"></line><rect x="10" y="10" class="st2" width="44" height="44"></rect><line class="st2" x1="62" y1="2" x2="2" y2="62"></line><line class="st2" x1="2" y1="32" x2="32" y2="2"></line><line class="st2" x1="32" y1="2" x2="62" y2="32"></line><line class="st2" x1="62" y1="32" x2="32" y2="62"></line><line class="st2" x1="32" y1="62" x2="2" y2="32"></line><circle class="st2" cx="32" cy="32" r="21"></circle></g></g><path d="M25,35c0,1.7,1.3,3,3,3v-6C26.3,32,25,33.3,25,35z"></path><path d="M30,46c1.7,0,3-1.3,3-3s-1.3-3-3-3V46z"></path><path d="M41,51c-2.2,0-4-1.8-4-4s1.8-4,4-4s4,1.8,4,4S43.2,51,41,51z M41,45c-1.1,0-2,0.9-2,2s0.9,2,2,2s2-0.9,2-2S42.1,45,41,45z"></path><path d="M52,60c-2.2,0-4-1.8-4-4s1.8-4,4-4s4,1.8,4,4S54.2,60,52,60z M52,54c-1.1,0-2,0.9-2,2s0.9,2,2,2s2-0.9,2-2S53.1,54,52,54z"></path><path d="M35,21H23c-1.1,0-2-0.9-2-2l0,0c0-1.1,0.9-2,2-2h12c1.1,0,2,0.9,2,2l0,0C37,20.1,36.1,21,35,21z"></path><path d="M36.6,5.2C35.4,6.4,34.1,8,33,10l3.5-8h-15c0,0,3,6.1,3.5,8c0,0-1.5-2.4-3.5-4.8l-5.3,2.6l1.2,1c2.8,2.3,4.7,4.4,5.8,6.2H35  c1.1-1.9,2.9-3.9,5.8-6.2l1.2-1L36.6,5.2z"></path><path d="M38.1,58L38.1,58l3.5-5c-0.2,0-0.4,0-0.7,0c-3.3,0-6-2.7-6-6s2.7-6,6-6c2.2,0,4.1,1.2,5.2,3l-0.5-5.1  c-0.5-6-3.4-11.6-8-15.3L37,23H21l-0.7,0.5c-4.6,3.8-7.5,9.4-8,15.3L11.1,52C9.3,52.2,8,53.7,8,55.5c0,1.9,1.6,3.5,3.5,3.5h25.9  L38.1,58z M30,48v2h-2v-2c-2.8,0-5-2.2-5-5h2c0,1.7,1.3,3,3,3v-6c-2.8,0-5-2.2-5-5s2.2-5,5-5v-2h2v2c2.8,0,5,2.2,5,5h-2  c0-1.7-1.3-3-3-3v6c2.8,0,5,2.2,5,5S32.8,48,30,48z"></path><rect x="45" y="39.8" transform="matrix(-0.8194 -0.5733 0.5733 -0.8194 53.8779 120.9831)" width="2" height="24.4"></rect></svg>