<svg fill="#FFFFFF" xmlns="http://www.w3.org/2000/svg" viewBox="0 0 64 64" x="0px" y="0px"><title>Renewable-energy-solar-technology-power</title><g data-name="32-Renewable energy"><path d="M42.793,52.793,39.586,56H30.5a.5.5,0,0,1,0-1H33a3,3,0,0,0,0-6H26a1,1,0,0,0-.707.293L22.586,52H2v2H23a1,1,0,0,0,.707-.293L26.414,51H33a1,1,0,0,1,0,2H30.5a2.5,2.5,0,0,0,0,5H40a1,1,0,0,0,.707-.293l3.5-3.5a1.125,1.125,0,0,1,1.586,0,1.12,1.12,0,0,1,0,1.586L41.586,60H2v2H42a1,1,0,0,0,.707-.293l4.5-4.5a3.121,3.121,0,0,0-4.414-4.414Z"></path><path d="M57.414,42,52,36.586V27h9a1,1,0,0,0,.929-1.371l-4-10A1,1,0,0,0,57,15H45a1,1,0,0,0-.929,1.371l4,10A1,1,0,0,0,49,27h1v9.586l-6,6-11-11V28h5a5.006,5.006,0,0,0,5-5,1,1,0,0,0-1-1H36a4.948,4.948,0,0,0-3,1.026V18.974A4.948,4.948,0,0,0,36,20a4.985,4.985,0,0,0,2.969-9A4.985,4.985,0,1,0,32,4.031,4.985,4.985,0,1,0,25.031,11,4.981,4.981,0,1,0,31,18.974V31.586l-11,11-6-6V26.132a.984.984,0,0,0,.266-.728L14.109,22.8l8.783,5.071a1,1,0,0,0,1.286-1.484l-6.66-8.464a1,1,0,0,0-1.337-.217L14,19.141V9a1,1,0,0,0-1.929-.371l-4,10A1,1,0,0,0,8.553,19.9l2.337,1.168L2.108,26.134A1,1,0,0,0,2.607,28a.973.973,0,0,0,.143-.01L12,26.657v9.929L6.586,42H2v2H7a1,1,0,0,0,.707-.293L13,38.414,18.586,44l-4.293,4.293A1,1,0,0,0,15,50h6a1,1,0,0,0,.707-.293L24.414,47H37a1,1,0,0,1,1,1v3a1,1,0,0,0,1,1h2a1,1,0,0,0,.707-.293L43.414,50H49a1,1,0,0,0,.707-1.707L45.414,44,51,38.414l5.293,5.293A1,1,0,0,0,57,44h5V42ZM54.323,22l1.2,3H53.677l-1.2-3Zm-2.646-2-1.2-3h1.846l1.2,3Zm6,5-1.2-3h1.846l1.2,3Zm-.154-5H55.677l-1.2-3h1.846Zm-9.2-3,1.2,3H47.677l-1.2-3Zm.154,5h1.846l1.2,3H49.677ZM36,24h4.829A3.006,3.006,0,0,1,38,26H33.171A3.006,3.006,0,0,1,36,24ZM16.515,19.878l2.88,3.659L14.9,20.943ZM12,14.192v5.19l-1.73-.865Zm.1,8.483.116,1.93-4.61.665ZM39,15a3,3,0,0,1-6,0V12h3A3,3,0,0,1,39,15ZM36,4a3,3,0,0,1,0,6H33V7A3,3,0,0,1,36,4ZM25,7a3,3,0,0,1,6,0v3H28A3,3,0,0,1,25,7Zm3,11a3,3,0,0,1,0-6h3v3A3,3,0,0,1,28,18ZM43,48a1,1,0,0,0-.707.293L40.586,50H40V48a3,3,0,0,0-3-3H24a1,1,0,0,0-.707.293L20.586,48H17.414L32,33.414,46.586,48Z"></path></g></svg>