<svg fill="#FFFFFF" xmlns="http://www.w3.org/2000/svg" xmlns:xlink="http://www.w3.org/1999/xlink" version="1.1" x="0px" y="0px" viewBox="0 0 100 100" enable-background="new 0 0 100 100" xml:space="preserve"><path d="M24.752,87.228h15.912V74.582H24.751c-2.814,0.002-4.985-0.729-5.664-1.902c-0.678-1.177-0.225-3.42,1.184-5.857  l5.428-9.404l5.833,3.367L26.75,42.954L8.917,47.73l5.832,3.367L9.32,60.5C5.552,67.029,5.12,73.771,8.138,79  C11.155,84.23,17.212,87.228,24.752,87.228z M49.741,19.582c1.359,0.001,3.076,1.515,4.484,3.954l5.43,9.402l-5.834,3.369  l17.834,4.776l4.781-17.833l-5.832,3.367l-5.43-9.405c-3.77-6.529-9.396-10.273-15.432-10.274  c-6.037,0.001-11.66,3.746-15.43,10.275l-7.957,13.78l10.95,6.321l7.956-13.779C46.67,21.096,48.386,19.582,49.741,19.582z   M50.825,80.904l13.053,13.059v-6.734l10.859-0.002c7.539,0,13.596-2.996,16.613-8.225c3.019-5.229,2.586-11.971-1.183-18.5  l-7.954-13.78l-10.951,6.323l7.955,13.778c1.406,2.438,1.861,4.682,1.182,5.856c-0.678,1.176-2.848,1.906-5.662,1.904H63.878V67.85  L50.825,80.904z"></path></svg>