<svg fill="#FFFFFF" xmlns="http://www.w3.org/2000/svg" xmlns:xlink="http://www.w3.org/1999/xlink" version="1.1" x="0px" y="0px" viewBox="0 0 96 96" enable-background="new 0 0 96 96" xml:space="preserve"><path d="M83.231,48l-8.358-27.861C74.493,18.87,73.325,18,72,18H56.475c-1.239-3.49-4.564-6-8.475-6c-3.909,0-7.235,2.51-8.475,6H24  c-1.325,0-2.493,0.869-2.874,2.138L12.768,48H9v3c0,8.271,6.729,15,15,15s15-6.729,15-15v-3h-3.768l-7.2-24h11.493  c0.905,2.55,2.925,4.569,5.475,5.475V69H30c-4.962,0-9,4.037-9,9v6h54v-6c0-4.963-4.037-9-9-9H51V29.476  c2.55-0.906,4.569-2.925,5.475-5.475h11.494l-7.2,24H57v3c0,8.271,6.729,15,15,15s15-6.729,15-15v-3H83.231z M24,60  c-3.911,0-7.248-2.508-8.486-6h16.972C31.248,57.492,27.911,60,24,60z M28.968,48h-9.936L24,31.44L28.968,48z M66,75  c1.654,0,3,1.346,3,3H27c0-1.654,1.346-3,3-3H66z M48,24c-1.654,0-3-1.346-3-3s1.346-3,3-3s3,1.346,3,3S49.654,24,48,24z M72,31.44  L76.968,48h-9.937L72,31.44z M72,60c-3.911,0-7.248-2.508-8.486-6h16.973C79.248,57.492,75.911,60,72,60z"></path></svg>