<svg fill="#FFFFFF" xmlns="http://www.w3.org/2000/svg" xmlns:xlink="http://www.w3.org/1999/xlink" version="1.1" x="0px" y="0px" viewBox="0 0 100 100" enable-background="new 0 0 100 100" xml:space="preserve"><g><path d="M50,8.5C27.1,8.5,8.5,27.1,8.5,50S27.1,91.5,50,91.5S91.5,72.9,91.5,50S72.9,8.5,50,8.5z M21.8,52.1   l2.1-1.3l8.8,4.7l10.1-6.2L27.9,37.7l4.5-2.7l20.5,7.9c0,0,12.3-7.5,15.7-9.6c1.5-0.9,3.2-1.3,4.9-1.1c1.2,0.1,2.5,0.4,3.5,1   c0.1,0.1,0.2,0.2,0.3,0.3c0.6,0.6,0.4,1.4-0.1,2.1c-1.3,1.9-3.3,3.5-5.2,4.9c-0.6,0.5-1.3,1-1.9,1.4c0,0-23.1,14-25.9,15.8   c-2.8,1.8-14,4.7-14,4.7L21.8,52.1z M49.9,81.9l-1-7.4L43.5,76l-1.7-9.4l3-0.5l1.1,6.2l5.6-1.5l1.4,10.7L49.9,81.9z M63.6,75.9   l-1.5-8.4L57,69.1l-3.8-8.5l2.7-1.2l2.7,6.1l5.8-1.7l2.1,11.6L63.6,75.9z M76.1,66.5l-1.8-8.3l-4.9,2.8l-4-8l2.7-1.3l2.6,5.2   l5.7-3.3L79,65.9L76.1,66.5z"></path></g></svg>