<svg fill="#FFFFFF" xmlns="http://www.w3.org/2000/svg" xmlns:xlink="http://www.w3.org/1999/xlink" version="1.1" x="0px" y="0px" viewBox="0 0 64 64" style="enable-background:new 0 0 64 64;" xml:space="preserve"><g><path d="M49,52.72v-6.8c0.328,0.047,0.66,0.08,1,0.08c3.52,0,6.435-2.616,6.921-6.004C56.947,39.996,56.974,40,57,40   c3.309,0,6-2.691,6-6c0-1.586-0.616-3.067-1.718-4.184C61.754,28.947,62,27.988,62,27c0-2.637-1.717-4.902-4.15-5.685   C57.949,20.883,58,20.443,58,20c0-2.286-1.27-4.311-3.242-5.325C54.913,14.143,55,13.582,55,13c0-2.58-1.639-4.822-4.011-5.651   C50.996,7.231,51,7.116,51,7c0-3.309-2.691-6-6-6s-6,2.691-6,6c0,0.115,0.011,0.229,0.017,0.344C36.682,8.165,35,10.387,35,13   c0,0.576,0.089,1.134,0.246,1.675C33.321,15.675,32,17.684,32,20c0,0.443,0.051,0.883,0.15,1.315   c-2.147,0.69-3.732,2.536-4.076,4.771c-0.386-0.304-0.809-0.557-1.275-0.738C26.921,24.916,27,24.467,27,24   c0-2.013-1.225-3.811-3.021-4.589C23.993,19.272,24,19.136,24,19c0-2.013-1.225-3.811-3.021-4.589C20.993,14.272,21,14.136,21,14   c0-2.757-2.243-5-5-5s-5,2.243-5,5c0,0.136,0.007,0.272,0.021,0.411C9.225,15.189,8,16.987,8,19c0,0.136,0.007,0.272,0.021,0.411   C6.225,20.189,5,21.987,5,24c0,0.459,0.065,0.914,0.188,1.352C3.327,26.081,2,27.884,2,30c0,0.849,0.233,1.637,0.607,2.338   C1.591,33.273,1,34.579,1,36c0,2.757,2.243,5,5,5h0.343c0.835,2.36,3.097,4,5.657,4v7.72c0,3.802-2.528,7.187-6.159,8.28H5v2h54v-2   h-3.841C51.528,59.907,49,56.522,49,52.72z M50.967,61H39.033C41.477,59.016,43,55.993,43,52.72v-7.407   c0.741-0.352,1.415-0.833,1.996-1.427c0.575,0.589,1.253,1.072,2.004,1.43v7.405C47,55.993,48.523,59.016,50.967,61z M20,52.72V45   c2.561,0,4.822-1.64,5.657-4H26c1.572,0,2.96-0.744,3.877-1.882c0.953,0.576,2.054,0.875,3.194,0.882c0.486,3.388,3.408,6,6.929,6   c0.338,0,0.671-0.031,1-0.079v6.798c0,3.802-2.528,7.187-6.159,8.28h-8.681C22.528,59.907,20,56.522,20,52.72z M33.562,23.05   l1.369-0.151l-0.567-1.255C34.122,21.11,34,20.557,34,20c0-2.206,1.794-4,4-4s4,1.794,4,4h2c0-3.309-2.691-6-6-6   c-0.286,0-0.565,0.027-0.841,0.066C37.063,13.72,37,13.367,37,13c0-2.206,1.794-4,4-4c0.874,0,1.704,0.276,2.4,0.8l1.201-1.6   C43.556,7.415,42.311,7,41,7c0-2.206,1.794-4,4-4s4,1.794,4,4c0,0.273-0.034,0.559-0.104,0.871l-0.227,1.02l1.028,0.182   C51.611,9.411,53,11.063,53,13c0,2.206-1.794,4-4,4v2c2.013,0,3.794-1,4.882-2.525C55.171,17.159,56,18.493,56,20   c0,0.557-0.122,1.11-0.363,1.644l-0.567,1.255l1.369,0.151C58.469,23.273,60,24.972,60,27c0,0.858-0.284,1.688-0.822,2.398   l-0.606,0.803l0.806,0.603C60.408,31.573,61,32.738,61,34c0,2.206-1.794,4-4,4c-0.027,0-0.054-0.008-0.081-0.008   C56.427,34.61,53.516,32,50,32v2c2.757,0,5,2.243,5,5s-2.243,5-5,5s-5-2.243-5-5h-2c0,1.17,0.292,2.273,0.803,3.243   C42.857,43.351,41.474,44,40,44c-2.757,0-5-2.243-5-4.979l0.005-1.349l-1.2,0.246c-1.036,0.211-2.128-0.012-3.007-0.589   C30.916,36.904,31,36.464,31,36c0-1.421-0.592-2.727-1.607-3.662c0.089-0.167,0.18-0.332,0.25-0.51C30.386,30.683,31.636,30,33,30   v-2c-0.938,0-1.835,0.224-2.645,0.622C30.129,28.115,30,27.569,30,27C30,24.972,31.531,23.273,33.562,23.05z M8.08,39.801L7.918,39   H6c-1.654,0-3-1.346-3-3c0-0.814,0.325-1.565,0.884-2.121C4.742,34.569,5.816,35,7,35v-2c-1.654,0-3-1.346-3-3s1.346-3,3-3   c0.731,0,1.436,0.266,1.983,0.749l1.322-1.5c-0.861-0.761-1.959-1.184-3.104-1.231C7.083,24.691,7,24.352,7,24   c0-1.408,0.999-2.642,2.376-2.933l1.046-0.222l-0.291-1.029C10.042,19.5,10,19.241,10,19c0-1.408,0.999-2.642,2.376-2.933   l1.046-0.222l-0.291-1.029C13.042,14.5,13,14.241,13,14c0-1.654,1.346-3,3-3s3,1.346,3,3c0,0.241-0.042,0.5-0.131,0.816   l-0.291,1.029l1.046,0.222C21.001,16.358,22,17.592,22,19c0,0.241-0.042,0.5-0.131,0.816l-0.291,1.029l1.046,0.222   C24.001,21.358,25,22.592,25,24c0,1.381-0.935,2.578-2.272,2.911l0.484,1.941c1.084-0.27,2.005-0.885,2.669-1.705   C27.104,27.526,28,28.654,28,30c0,1.654-1.346,3-3,3c-0.717,0-1.41-0.257-1.952-0.723l-1.305,1.516C22.647,34.571,23.805,35,25,35   c1.184,0,2.258-0.431,3.115-1.121C28.675,34.435,29,35.186,29,36c0,1.654-1.346,3-3,3h-1.918l-0.162,0.801   C23.543,41.654,21.895,43,20,43c-1.264,0-2.429-0.592-3.198-1.625L16,40.298l-0.802,1.077C14.429,42.408,13.264,43,12,43   C10.105,43,8.457,41.654,8.08,39.801z M14,52.72v-8.076c0.733-0.262,1.414-0.655,2-1.188c0.586,0.532,1.267,0.926,2,1.188v8.076   c0,3.273,1.523,6.297,3.967,8.28H10.033C12.477,59.016,14,55.993,14,52.72z"></path><rect x="61" y="61" width="2" height="2"></rect><rect x="1" y="61" width="2" height="2"></rect><path d="M35,36c0-1.103,0.897-2,2-2s2,0.897,2,2h2c0-2.206-1.794-4-4-4s-4,1.794-4,4H35z"></path><path d="M41,24c1.103,0,2,0.897,2,2h2c0-2.206-1.794-4-4-4s-4,1.794-4,4h2C39,24.897,39.897,24,41,24z"></path><path d="M14,33c1.103,0,2,0.897,2,2h2c0-2.206-1.794-4-4-4s-4,1.794-4,4h2C12,33.897,12.897,33,14,33z"></path><path d="M18,23c1.103,0,2,0.897,2,2h2c0-2.206-1.794-4-4-4s-4,1.794-4,4h2C16,23.897,16.897,23,18,23z"></path><path d="M52,28c1.103,0,2,0.897,2,2h2c0-2.206-1.794-4-4-4s-4,1.794-4,4h2C50,28.897,50.897,28,52,28z"></path></g></svg>