<svg fill="#FFFFFF" xmlns="http://www.w3.org/2000/svg" xmlns:xlink="http://www.w3.org/1999/xlink" viewBox="0 0 100 100" version="1.1" x="0px" y="0px"><title>Targeting Copy 2</title><desc>Created with Sketch.</desc><g stroke="none" stroke-width="1" fill="none" fill-rule="evenodd"><path d="M25.5,64 C20.7947338,64 17,59.9609849 17,55 C17,50.0390151 20.7947338,46 25.5,46 C30.2052662,46 34,50.0390151 34,55 C34,59.9609849 30.2052662,64 25.5,64 Z M25.5,60.96 C28.5255949,60.96 31,58.3021022 31,55 C31,51.6978978 28.5255949,49.04 25.5,49.04 C22.4744051,49.04 20,51.6978978 20,55 C20,58.3021022 22.4744051,60.96 25.5,60.96 Z" fill="#FFFFFF" fill-rule="nonzero"></path><path d="M74.5,64 C69.7947338,64 66,59.9609849 66,55 C66,50.0390151 69.7947338,46 74.5,46 C79.2052662,46 83,50.0390151 83,55 C83,59.9609849 79.2052662,64 74.5,64 Z M74.5,60.96 C77.5255949,60.96 80,58.3021022 80,55 C80,51.6978978 77.5255949,49.04 74.5,49.04 C71.4744051,49.04 69,51.6978978 69,55 C69,58.3021022 71.4744051,60.96 74.5,60.96 Z" fill="#FFFFFF" fill-rule="nonzero"></path><path d="M25.5,60.9660857 C26.8280859,60.9660857 28.1141146,60.672541 29.2893348,60.1137606 L29.5285919,60.0000014 L36.1827673,63.9046223 C37.9320328,64.9310791 39,66.7463582 39,68.7046998 C39,70.5671516 37.4158166,72.065316 35.4751379,72.065316 L15.5248621,72.065316 C13.5841834,72.065316 12,70.5671516 12,68.7046998 C12,66.7463582 13.0679672,64.9310791 14.8172327,63.9046223 L21.4714052,60 L21.7106624,60.1137593 C22.885885,60.6725409 24.1719137,60.9660857 25.5,60.9660857 Z M16.3631494,66.2891886 C15.5137184,66.7943832 15,67.6794097 15,68.6289366 C15,68.865092 15.2088894,69.065316 15.4769047,69.065316 L35.5230953,69.065316 C35.7911106,69.065316 36,68.865092 36,68.6289366 C36,67.6794098 35.4862817,66.7943832 34.6368514,66.289189 L29.2980964,63.1139951 C28.0791878,63.5242088 26.7997277,63.7338993 25.5,63.7338993 C24.2002713,63.7338993 22.9208103,63.5242085 21.7019009,63.1139941 L16.3631494,66.2891886 Z" fill="#FFFFFF" fill-rule="nonzero"></path><path d="M50,29 C45.2947338,29 41.5,24.9609849 41.5,20 C41.5,15.0390151 45.2947338,11 50,11 C54.7052662,11 58.5,15.0390151 58.5,20 C58.5,24.9609849 54.7052662,29 50,29 Z M50,25.96 C53.0255949,25.96 55.5,23.3021022 55.5,20 C55.5,16.6978978 53.0255949,14.04 50,14.04 C46.9744051,14.04 44.5,16.6978978 44.5,20 C44.5,23.3021022 46.9744051,25.96 50,25.96 Z" fill="#FFFFFF" fill-rule="nonzero"></path><path d="M50,25.9660857 C51.3280859,25.9660857 52.6141146,25.672541 53.7893348,25.1137606 L54.0285919,25.0000014 L60.6827673,28.9046223 C62.4320328,29.9310791 63.5,31.7463582 63.5,33.7046998 C63.5,35.5671516 61.9158166,37.065316 59.9751379,37.065316 L40.0248621,37.065316 C38.0841834,37.065316 36.5,35.5671516 36.5,33.7046998 C36.5,31.7463582 37.5679672,29.9310791 39.3172327,28.9046223 L45.9714052,25 L46.2106624,25.1137593 C47.385885,25.6725409 48.6719137,25.9660857 50,25.9660857 Z M40.8631494,31.2891886 C40.0137184,31.7943832 39.5,32.6794097 39.5,33.6289366 C39.5,33.865092 39.7088894,34.065316 39.9769047,34.065316 L60.0230953,34.065316 C60.2911106,34.065316 60.5,33.865092 60.5,33.6289366 C60.5,32.6794098 59.9862817,31.7943832 59.1368514,31.289189 L53.7980964,28.1139951 C52.5791878,28.5242088 51.2997277,28.7338993 50,28.7338993 C48.7002713,28.7338993 47.4208103,28.5242085 46.2019009,28.1139941 L40.8631494,31.2891886 Z" fill="#FFFFFF" fill-rule="nonzero"></path><path d="M74.5,60.9660857 C75.8280859,60.9660857 77.1141146,60.672541 78.2893348,60.1137606 L78.5285919,60.0000014 L85.1827673,63.9046223 C86.9320328,64.9310791 88,66.7463582 88,68.7046998 C88,70.5671516 86.4158166,72.065316 84.4751379,72.065316 L64.5248621,72.065316 C62.5841834,72.065316 61,70.5671516 61,68.7046998 C61,66.7463582 62.0679672,64.9310791 63.8172327,63.9046223 L70.4714052,60 L70.7106624,60.1137593 C71.885885,60.6725409 73.1719137,60.9660857 74.5,60.9660857 Z M65.3631494,66.2891886 C64.5137184,66.7943832 64,67.6794097 64,68.6289366 C64,68.865092 64.2088894,69.065316 64.4769047,69.065316 L84.5230953,69.065316 C84.7911106,69.065316 85,68.865092 85,68.6289366 C85,67.6794098 84.4862817,66.7943832 83.6368514,66.289189 L78.2980964,63.1139951 C77.0791878,63.5242088 75.7997277,63.7338993 74.5,63.7338993 C73.2002713,63.7338993 71.9208103,63.5242085 70.7019009,63.1139941 L65.3631494,66.2891886 Z" fill="#FFFFFF" fill-rule="nonzero"></path><path d="M80.1898339,41 L77.0431861,41 C76.8039338,40.2837072 76.5345352,39.5712647 76.2343883,38.8641628 C73.2219432,31.7672868 67.5753045,26.3259019 60.5551942,23.5266551 L61.6663552,20.7400225 C69.1991899,23.7437165 75.5768797,29.6372555 78.9959029,37.6919695 C79.4597009,38.7846091 79.8570716,39.8887866 80.1898339,41 Z M19.8121991,41 C22.4049579,32.3208872 28.7025244,24.8198901 37.6919695,21.0040971 L38.8641628,23.7656117 C31.0283007,27.0917378 25.4530657,33.5126815 22.958002,41 L19.8121991,41 Z" fill="#FFFFFF" fill-rule="nonzero"></path><path d="M35.9149319,62.9658972 C42.6156882,63.5860688 49.1701051,66.3491139 54.4724654,71.2936449 C60.9850633,77.3667406 64.3464773,85.5536359 64.4851618,93.8055328 L61.4754522,93.4359869 C61.2451246,86.1126836 58.2084105,78.8794524 52.4264703,73.487706 C47.8026099,69.1758864 42.0132891,66.6015849 35.9149319,65.9790769 L35.9149319,62.9658972 Z" fill="#FFFFFF" fill-rule="nonzero" transform="translate(50.200047, 78.385715) rotate(133.000000) translate(-50.200047, -78.385715) "></path></g></svg>