<svg fill="#FFFFFF" xmlns="http://www.w3.org/2000/svg" xmlns:xlink="http://www.w3.org/1999/xlink" version="1.1" x="0px" y="0px" viewBox="0 0 100 100" enable-background="new 0 0 100 100" xml:space="preserve"><polygon points="70.3,26 70.3,11 63.3,11 63.3,20.9 49.6,11 5.2,43.3 9.1,48.8 49.6,19.4 90.1,48.8 94.1,43.3 "></polygon><g><path d="M49.6,28.9L49.6,28.9L49.6,28.9L49.6,28.9L20,50.1v38.4h27.6h2.1h29.6V50.1L49.6,28.9z M49.8,78.9   c-8.6,0-15.5-6.9-15.5-15.5s6.9-15.5,15.5-15.5s15.5,6.9,15.5,15.5S58.3,78.9,49.8,78.9z"></path></g><g><path d="M50.6,74.3h-1.1V72c-1.5-0.2-2.6-0.5-3.4-1c-1.3-0.9-2-2.4-1.9-4.5h3.1c0.1,1,0.3,1.6,0.5,2c0.3,0.5,0.9,0.9,1.8,1v-4.9   l-0.9-0.3c-1.5-0.4-2.5-1-3.1-1.8c-0.6-0.8-0.9-1.7-0.9-2.8c0-0.7,0.1-1.4,0.4-2c0.2-0.6,0.6-1.1,1-1.5c0.5-0.5,1.2-0.9,1.8-1.1   c0.4-0.1,1-0.2,1.8-0.3v-1.5h1.1v1.6c1.2,0.1,2.2,0.4,2.9,0.9c1.3,0.8,2,2.2,2,4h-3c-0.1-0.7-0.2-1.2-0.3-1.5   c-0.3-0.5-0.8-0.8-1.6-0.9v4.4c1.8,0.6,3.1,1.2,3.7,1.7c1,0.8,1.6,1.9,1.6,3.4c0,1.9-0.7,3.3-2.1,4.2c-0.9,0.5-1.9,0.9-3.1,0.9   V74.3z M49.5,57.3c-0.7,0-1.2,0.2-1.5,0.5c-0.3,0.3-0.5,0.8-0.5,1.4c0,0.6,0.2,1.2,0.7,1.5c0.3,0.2,0.7,0.4,1.2,0.6V57.3z    M50.6,69.4c0.6-0.1,1-0.2,1.3-0.4c0.5-0.4,0.7-1,0.7-1.8c0-0.7-0.2-1.2-0.7-1.6c-0.3-0.2-0.7-0.5-1.4-0.7V69.4z"></path></g></svg>