<svg fill="#FFFFFF" xmlns="http://www.w3.org/2000/svg" xmlns:xlink="http://www.w3.org/1999/xlink" version="1.1" x="0px" y="0px" viewBox="0 0 100 100" enable-background="new 0 0 100 100" xml:space="preserve"><g><g><path fill="none" d="M67.429,36.761c-0.007-0.154,0.05-0.31,0.168-0.457c0.019-0.026,0.032-0.053,0.053-0.077    c3.384-3.325,7.462-6.54,9.548-10.909c1.436-3.012,2.033-5.675,0.059-8.564c-1.133-1.657-2.757-1.906-3.987-0.464    c-2.488,2.917-3.913,6.85-4.945,10.49c-0.855,3.021-1.997,6.737-1.277,9.906C67.176,36.716,67.303,36.738,67.429,36.761z"></path><path fill="none" d="M22.996,28.465c-1.499-2.018-7.079-11.413-10.204-7.512c-9.974,12.45,9.513,18.975,19.044,15.795    C28.003,35.337,25.345,31.625,22.996,28.465z"></path><path fill="none" d="M34.316,20.193C33.71,16.57,32.576,6.681,27.77,6.567c-8.896-0.212-3.305,11.629-2.134,14.663    c1.704,4.419,4.432,11.557,8.951,13.89c0.177,0.092,0.271,0.224,0.323,0.365c0.033-0.011,0.066-0.021,0.099-0.032    c-0.037-0.115-0.057-0.241-0.028-0.384C35.898,30.387,35.093,24.824,34.316,20.193z"></path><path fill="none" d="M88.767,26.405c-3.082-5.458-8.664,2.143-11.226,4.786c-1.629,1.679-4.805,4.628-7.099,5.935    C78.244,37.684,93.754,35.238,88.767,26.405z"></path><path fill="none" d="M47.503,22.453c0.511-2.68,1.498-5.231-1.627-8.145c-1.547-1.441-3.026-2.101-3.984,0.163    c-1.628,3.845-1.841,8.351-2.39,12.438c-0.299,2.228-0.472,4.764-1.192,7.014C43.123,32.652,46.627,27.031,47.503,22.453z"></path><path fill="none" d="M62.686,14.669c-2.983,1.996-4.645,6.402-4.766,9.864c-0.164,4.712,2.083,8.185,5.987,10.225    c-0.997-2.996-0.257-6.592,0.268-9.571C64.412,23.847,66.709,11.978,62.686,14.669z"></path><path fill="none" d="M73.706,79.064c1.342-2.043-0.244-3.465-2.575-2.844c-2.818,0.751-5.211,2.769-7.226,4.806    c-2.832,2.862-7.039,7.261-8.542,11.65C61.231,88.024,69.488,85.484,73.706,79.064z"></path><path fill="none" d="M45.563,82.029C43.76,79.56,38.1,70.956,34.077,72.36c-2.933,1.023-2.414,4.724-0.784,6.573    c2.136,2.423,4.808,4.309,7.497,6.067c3.442,2.249,7.518,4.204,10.915,6.762c-0.006-0.032-0.012-0.064-0.017-0.096    C50.064,88.24,47.701,84.957,45.563,82.029z"></path><path d="M65.334,45.537c3.722,0.361,6.011-4.284,6.925-7.473c7.766,0.511,20.376-0.485,19.016-8.63    c-0.816-4.893-4.2-8.286-8.585-5.196c-2.523,1.777-4.587,4.234-6.722,6.437c-1.39,1.434-3.166,3.515-5.178,4.605    c4.012-3.808,8.284-7.927,9.068-13.55c0.401-2.883-1.429-8.89-5.309-8.109c-3.663,0.737-5.661,7.014-6.737,9.929    c-1.158,3.139-2.497,7.162-2.489,10.829c-2.081-5.294,1.79-12.701,1.351-18.136c-0.279-3.445-3.035-4.218-5.536-2.275    c-3.352,2.605-5.382,7.582-5.337,11.619c0.049,4.375,3.088,7.864,6.525,9.959c-0.024,0.125-0.024,0.257,0.006,0.385    c-1.439,2.873-2.038,7.737,1.619,9.245c-0.019,0.043-0.046,0.075-0.059,0.126c-3.796,15.24-12.123,30.681-10.389,46.748    c-0.132-0.308-0.266-0.616-0.409-0.923c-3.07-15.703-5.372-32.517-14.023-46.29c2.113-2.032,1.242-6.496,0.325-8.774    c-0.002-0.002-0.003-0.004-0.005-0.006c-0.039-0.169-0.544-0.349-0.337-0.44c5.083-2.212,7.473-6.037,9.208-10.458    c1.709-4.357,1.629-11.786-3.801-13.627c-5.881-1.994-6.339,14.89-7.709,21.606c0.517-5.315-0.494-11.181-1.536-16.212    c-0.816-3.941-3.014-12.788-8.723-11.857c-10.931,1.784-0.525,24.486,5.911,30.29c-6.099-2.122-9.314-10.086-13.543-14.496    c-3.652-3.808-7.58-2.11-9.464,2.564C4.766,34.913,22.07,40.812,31.567,38.349c0.474,2.941,2.155,8.562,6.104,7.317    c0.045-0.015,0.083-0.038,0.128-0.054c7.713,12.296,10.309,27.068,12.969,41.253c-1.648-2.658-3.549-5.189-5.343-7.491    c-2.363-3.031-7.327-9.992-12.074-8.335c-1.62,0.565-3.599,2.678-3.732,4.304c-0.219,2.685,2.672,4.868,4.5,6.539    c4.018,3.676,9.221,6.015,13.826,8.995c-0.001,0-0.004-0.006-0.004-0.006c1.77,1.205,5.792,3.251,6.904,4.129    c0.082-0.033,0.164-0.075,0.241-0.146c3.815-3.508,9.032-5.859,13.224-8.924c1.923-1.406,9.486-6.289,7.334-9.551    c-3.713-5.627-8.672-1.052-11.653,1.57c-3.054,2.685-7.028,7.822-9.177,12.224c-1.009-15.213,6.916-30.036,10.512-44.477    C65.34,45.638,65.331,45.589,65.334,45.537z M77.541,31.191c2.562-2.644,8.144-10.244,11.226-4.786    c4.987,8.834-10.523,11.279-18.326,10.721C72.736,35.819,75.912,32.87,77.541,31.191z M68.325,26.781    c1.032-3.64,2.457-7.573,4.945-10.49c1.23-1.442,2.855-1.193,3.987,0.464c1.973,2.888,1.377,5.551-0.059,8.564    c-2.086,4.37-6.164,7.584-9.548,10.909c-0.021,0.024-0.034,0.051-0.053,0.077c-0.117,0.147-0.175,0.303-0.168,0.457    c-0.127-0.023-0.254-0.044-0.382-0.074C66.328,33.517,67.47,29.801,68.325,26.781z M12.792,20.954    c3.125-3.901,8.705,5.494,10.204,7.512c2.349,3.16,5.007,6.872,8.84,8.283C22.305,39.929,2.819,33.404,12.792,20.954z     M35.009,35.453c-0.033,0.011-0.066,0.021-0.099,0.032c-0.052-0.141-0.146-0.273-0.323-0.365    c-4.518-2.332-7.247-9.471-8.951-13.89c-1.17-3.035-6.762-14.875,2.134-14.663c4.805,0.114,5.939,10.003,6.546,13.626    c0.777,4.631,1.582,10.195,0.665,14.876C34.953,35.212,34.972,35.337,35.009,35.453z M39.501,26.909    c0.55-4.088,0.763-8.593,2.39-12.438c0.958-2.265,2.437-1.605,3.984-0.163c3.126,2.914,2.138,5.466,1.627,8.145    c-0.875,4.579-4.379,10.199-9.194,11.47C39.029,31.674,39.202,29.137,39.501,26.909z M40.79,85    c-2.689-1.758-5.361-3.644-7.497-6.067c-1.63-1.849-2.148-5.55,0.784-6.573c4.023-1.404,9.683,7.2,11.486,9.669    c2.138,2.929,4.501,6.212,6.125,9.637c0.006,0.032,0.012,0.064,0.017,0.096C48.308,89.203,44.232,87.249,40.79,85z M63.905,81.026    c2.015-2.037,4.407-4.054,7.226-4.806c2.331-0.621,3.918,0.8,2.575,2.844c-4.218,6.42-12.475,8.96-18.343,13.612    C56.866,88.287,61.073,83.888,63.905,81.026z M63.908,34.758c-3.904-2.039-6.152-5.513-5.987-10.225    c0.121-3.462,1.783-7.868,4.766-9.864c4.022-2.691,1.725,9.178,1.489,10.518C63.651,28.165,62.911,31.762,63.908,34.758z"></path></g></g></svg>