<svg fill="#FFFFFF" xmlns="http://www.w3.org/2000/svg" xmlns:xlink="http://www.w3.org/1999/xlink" version="1.1" x="0px" y="0px" viewBox="0 0 100 100" style="enable-background:new 0 0 100 100;" xml:space="preserve"><style type="text/css">
	.st0{stroke:#FFFFFF;stroke-width:0.5;stroke-miterlimit:10;}
</style><polygon class="st0" points="35,80.1 36.1,83.5 33.2,81.3 30.3,83.5 31.4,80 28.5,78 32.1,78 33.2,74.6 34.3,78 37.8,78 "></polygon><polygon class="st0" points="51.8,84.6 52.9,88 50,85.8 47.1,87.9 48.2,84.5 45.3,82.5 48.9,82.4 50,79.1 51.1,82.4 54.6,82.4 "></polygon><polygon class="st0" points="80.8,67.9 81.9,71.3 79,69.1 76.1,71.2 77.2,67.8 74.4,65.7 77.9,65.7 79,62.4 80.1,65.7 83.6,65.7 "></polygon><polygon class="st0" points="68.5,80.1 69.7,83.5 66.8,81.3 63.8,83.5 64.9,80 62.1,78 65.6,78 66.8,74.6 67.8,78 71.3,78 "></polygon><polygon class="st0" points="22.7,67.9 23.9,71.3 21,69.1 18,71.2 19.1,67.8 16.3,65.7 19.8,65.7 21,62.4 22,65.7 25.5,65.7 "></polygon><polygon class="st0" points="18.2,51.1 19.4,54.5 16.5,52.3 13.5,54.4 14.6,51 11.8,49 15.3,48.9 16.5,45.6 17.5,48.9 21,48.9 "></polygon><polygon class="st0" points="35,22.1 36.1,25.5 33.2,23.3 30.3,25.5 31.4,22.1 28.5,20 32.1,20 33.2,16.7 34.3,20 37.8,20 "></polygon><polygon class="st0" points="22.7,34.3 23.9,37.7 21,35.5 18,37.7 19.1,34.3 16.3,32.2 19.8,32.2 21,28.9 22,32.2 25.5,32.2 "></polygon><polygon class="st0" points="51.8,17.5 52.9,20.9 50,18.7 47.1,20.8 48.2,17.4 45.3,15.4 48.9,15.3 50,12 51.1,15.3 54.6,15.3 "></polygon><polygon class="st0" points="68.5,22.1 69.7,25.5 66.8,23.3 63.8,25.5 64.9,22.1 62.1,20 65.6,20 66.8,16.7 67.8,20 71.3,20 "></polygon><polygon class="st0" points="85.4,51.1 86.5,54.5 83.7,52.3 80.7,54.4 81.8,51 79,49 82.5,48.9 83.7,45.6 84.7,48.9 88.2,48.9 "></polygon><polygon class="st0" points="80.8,34.3 81.9,37.7 79,35.5 76.1,37.7 77.2,34.3 74.4,32.2 77.9,32.2 79,28.9 80.1,32.2 83.6,32.2 "></polygon></svg>