<svg fill="#FFFFFF" xmlns="http://www.w3.org/2000/svg" xmlns:xlink="http://www.w3.org/1999/xlink" version="1.1" x="0px" y="0px" viewBox="0 0 100 100" enable-background="new 0 0 100 100" xml:space="preserve"><path d="M43.731,38.306c-0.497,0-0.994-0.188-1.373-0.568c-0.758-0.758-0.757-1.987,0.001-2.746c3.782-3.78,9.939-3.78,13.721,0  c0.759,0.759,0.759,1.988,0,2.746c-0.758,0.759-1.987,0.759-2.746,0c-2.269-2.267-5.961-2.267-8.231,0  C44.725,38.118,44.228,38.306,43.731,38.306z M39.471,32.106c2.604-2.605,6.067-4.04,9.75-4.04c3.684,0,7.146,1.433,9.75,4.037  c0.759,0.759,1.988,0.759,2.746,0c0.759-0.758,0.759-1.987,0-2.746c-3.337-3.338-7.775-5.175-12.496-5.175  c-4.719,0-9.158,1.839-12.496,5.177c-0.759,0.759-0.759,1.988,0,2.747c0.379,0.379,0.876,0.568,1.373,0.568  S39.092,32.485,39.471,32.106z M67.647,26.174c0.759-0.758,0.759-1.987,0-2.746c-4.921-4.923-11.465-7.633-18.425-7.633  c-0.001,0-0.002,0-0.003,0c-6.96,0-13.504,2.71-18.426,7.633c-0.759,0.759-0.759,1.988,0,2.746c0.758,0.759,1.987,0.759,2.746,0  c4.189-4.19,9.757-6.498,15.68-6.498c0.001,0,0.002,0,0.002,0c5.924,0.003,11.492,2.309,15.68,6.498  c0.379,0.379,0.876,0.568,1.373,0.568C66.771,26.742,67.269,26.554,67.647,26.174z M89.199,75.456c3.782-3.782,3.782-9.938,0-13.722  c-0.758-0.759-1.988-0.759-2.745,0c-0.759,0.759-0.76,1.988-0.001,2.747c2.268,2.269,2.268,5.963,0,8.23  c-0.759,0.759-0.759,1.988,0,2.746c0.379,0.38,0.876,0.568,1.373,0.568C88.323,76.024,88.82,75.835,89.199,75.456z M94.834,81.09  c6.889-6.89,6.888-18.102-0.002-24.991c-0.759-0.758-1.988-0.758-2.747,0c-0.759,0.759-0.759,1.988,0,2.747  c5.377,5.377,5.377,14.124,0.002,19.499c-0.759,0.758-0.759,1.988,0,2.746c0.379,0.38,0.876,0.568,1.373,0.568  S94.455,81.47,94.834,81.09z M13.545,75.454c0.759-0.759,0.76-1.988,0.001-2.746c-2.268-2.27-2.268-5.963,0-8.23  c0.759-0.758,0.759-1.987,0-2.746c-0.758-0.759-1.987-0.759-2.746,0c-3.782,3.782-3.782,9.938,0,13.722  c0.379,0.38,0.876,0.568,1.373,0.568C12.67,76.021,13.167,75.833,13.545,75.454z M7.915,81.088c0.759-0.759,0.759-1.988,0-2.747  c-5.377-5.376-5.377-14.124-0.002-19.499c0.759-0.758,0.759-1.987,0-2.746c-0.759-0.759-1.988-0.759-2.746,0  c-6.889,6.89-6.888,18.102,0.002,24.992c0.379,0.379,0.876,0.568,1.374,0.568S7.535,81.467,7.915,81.088z M79.504,66.944  c0,2.491,1.315,3.181,1.315,4.488c0,1.366-1.22,2.325-1.22,2.325v9.942c0,0-0.19,1.579-1.975,1.579s-3.288,0.083-4.696,0.083  c-1.41,0-1.786-0.748-1.786-1.578c0-0.832,0-2.826,0-2.826H49.746h-0.867h-21.4c0,0,0,1.995,0,2.826c0,0.83-0.375,1.578-1.785,1.578  c-1.408,0-2.911-0.083-4.696-0.083s-1.973-1.579-1.973-1.579v-9.942c0,0-1.223-0.958-1.223-2.325c0-1.307,1.316-1.997,1.316-4.488  c0-2.494,3.266-9.232,3.59-9.938c-0.627-0.624-1.269-1.779-1.644-2.522c-0.087,0.005-0.175,0.011-0.265,0.011  c-1.876,0-3.396-0.854-3.396-1.903c0-1.052,1.52-1.904,3.396-1.904c1.875,0,3.395,0.852,3.395,1.904  c0,0.492-0.334,0.934-0.876,1.271c-0.115,0.271-0.501,1.386,0.821,1.739c0.357-0.597,0.609-1.416,0.609-1.416l5.136-9.167  c0,0,0.372-0.765,1.238-1.53c0.865-0.767,10.208-1.861,18.189-1.861s17.324,1.094,18.19,1.861c0.867,0.766,1.237,1.53,1.237,1.53  l5.137,9.167c0,0,0.251,0.819,0.609,1.416c1.323-0.353,0.936-1.469,0.821-1.739c-0.542-0.337-0.876-0.779-0.876-1.271  c0-1.052,1.521-1.904,3.395-1.904c1.875,0,3.396,0.852,3.396,1.904c0,1.049-1.522,1.903-3.396,1.903  c-0.089,0-0.177-0.006-0.265-0.011c-0.375,0.744-1.017,1.899-1.644,2.522C76.238,57.712,79.504,64.451,79.504,66.944z   M31.701,64.211c0-2-1.833-3.62-4.095-3.62c-2.259,0-4.093,1.619-4.093,3.62c0,2.001,1.834,3.623,4.093,3.623  C29.868,67.834,31.701,66.212,31.701,64.211z M50.026,55.063v0.002c1.624,0.002,3.119,0.009,4.541,0.018  c0.737-2.756,3.23-4.8,6.215-4.8c3.064,0,5.624,2.149,6.281,5.015c1.736,0.059,3.128,0.118,4.165,0.173  c-1.323-2.968-4.396-8.165-4.977-9.142c-0.743-1.251-1.562-1.251-1.562-1.251s-7.965-1.187-15.377-1.187  c-7.412,0-15.377,1.187-15.377,1.187s-0.819,0-1.563,1.251c-0.58,0.977-3.652,6.173-4.977,9.142  c3.246-0.175,9.546-0.391,21.202-0.406v-0.002c0.241,0,0.476,0.002,0.714,0.002C49.55,55.065,49.785,55.063,50.026,55.063z   M64.675,55.232c-0.608-1.562-2.119-2.678-3.893-2.678c-1.727,0-3.213,1.051-3.851,2.549C60.003,55.134,62.557,55.178,64.675,55.232  z M75.11,64.211c0-2-1.833-3.62-4.093-3.62c-2.263,0-4.096,1.619-4.096,3.62c0,2.001,1.833,3.623,4.096,3.623  C73.277,67.834,75.11,66.212,75.11,64.211z"></path></svg>