<svg fill="#FFFFFF" xmlns="http://www.w3.org/2000/svg" data-name="Слой 1" viewBox="0 0 100 100" x="0px" y="0px"><title>tree_13</title><path d="M73.6,51a25.53,25.53,0,0,0-5.75-16.18,20.93,20.93,0,1,0-39.77,0A25.63,25.63,0,0,0,46,76.51v11.2H37.54a2,2,0,0,0,0,4H58.39a2,2,0,0,0,0-4H50V76.51A25.64,25.64,0,0,0,73.6,51ZM26.32,51A21.39,21.39,0,0,1,31.18,37.3l1.38-1.7-.68-2.08a16.93,16.93,0,1,1,32.17,0l-.68,2.08,1.38,1.7A21.39,21.39,0,0,1,69.6,51,21.67,21.67,0,0,1,50,72.5V50.33l9-9a2,2,0,0,0-2.83-2.83L50,44.67V34.73a2,2,0,0,0-4,0V53.3L40,47.37A2,2,0,0,0,37.2,50.2L46,59V72.5A21.67,21.67,0,0,1,26.32,51Z"></path></svg>