<svg fill="#FFFFFF" xmlns="http://www.w3.org/2000/svg" data-name="Layer 1" viewBox="0 0 100 100" x="0px" y="0px"><title>30</title><g data-name="Group"><path data-name="Compound Path" d="M30.3,45.2H27.4a2,2,0,0,0-2.1,2.1V50A22.4,22.4,0,0,0,46.9,71.4h1.3V94.8a2,2,0,0,0,4,0V86.1h.9A22.4,22.4,0,0,0,74.6,64.7V61.8a2,2,0,0,0-.6-1.5,2,2,0,0,0-1.5-.6H69.7a22.3,22.3,0,0,0-17.5,9.7V46.4a15,15,0,0,0,14.5-15v-10a4,4,0,0,0-4-4H60.2V5.3a2,2,0,0,0-4,0V17.4h-12V5.3a2,2,0,0,0-4,0V17.4H37.8a4,4,0,0,0-4,4v10a15,15,0,0,0,14.5,15v9.1A22.3,22.3,0,0,0,30.3,45.2ZM47,67.4A18.4,18.4,0,0,1,29.4,49.9v-.8h.8A18.4,18.4,0,0,1,47.7,66.7v.8Zm5.3,13.9A18.3,18.3,0,0,1,69.8,63.9h.7v.7A18.3,18.3,0,0,1,53,82.1h-.7Zm-14.6-50v-10h25v10a11,11,0,0,1-11,11h-3A11,11,0,0,1,37.8,31.4Z"></path></g></svg>