<svg fill="#FFFFFF" xmlns="http://www.w3.org/2000/svg" data-name="Layer 1" viewBox="0 0 100 100" x="0px" y="0px"><title>73</title><g data-name="Group"><path data-name="Compound Path" d="M42.3,63a4.8,4.8,0,0,0,.7-4.2L38.1,43.2a7.6,7.6,0,0,0-7.3-5.4H16.7a7.6,7.6,0,0,0-7.3,5.4L4.6,58.6a4.8,4.8,0,0,0,4.6,6.2h2.1L7.8,76.1a1,1,0,0,0,1,1.3H14v8.9a7,7,0,0,0,7,7h5.6a7,7,0,0,0,7-7V77.4h5.3a1,1,0,0,0,1-1.3L36.3,65h2.2A4.8,4.8,0,0,0,42.3,63Zm-6.6.1L31.2,48.5l-1.9.6,8.2,26.3H32.6a1,1,0,0,0-1,1v9.9a5,5,0,0,1-5,5H24.8V76.8H22.7V91.2H21a5,5,0,0,1-5-5V76.4a1,1,0,0,0-1-1H10.1L18.3,49l-1.9-.6L11.9,62.8H9.2a2.8,2.8,0,0,1-2.7-3.6l4.8-15.3a5.6,5.6,0,0,1,5.4-4H30.8a5.6,5.6,0,0,1,5.4,4l4.9,15.5A2.8,2.8,0,0,1,38.5,63Z"></path><path data-name="Compound Path" d="M16.3,29.5A7.5,7.5,0,1,0,23.8,22,7.5,7.5,0,0,0,16.3,29.5Zm13,0A5.5,5.5,0,1,1,23.8,24,5.5,5.5,0,0,1,29.3,29.5Z"></path><path data-name="Compound Path" d="M94.8,62.8a4.6,4.6,0,0,0,.6-4.1L90.5,43.2a7.6,7.6,0,0,0-7.3-5.4H69.1a7.6,7.6,0,0,0-7.3,5.4L57,58.6a4.8,4.8,0,0,0,4.6,6.2h2.1L60.2,76.1a1,1,0,0,0,1,1.3h5.3v8.9a7,7,0,0,0,7,7H79a7,7,0,0,0,7-7V77.4h5.3a1,1,0,0,0,1-1.3L88.7,65h1.7A5.3,5.3,0,0,0,94.8,62.8Zm-6.6.2L83.6,48.5l-1.9.6,8.2,26.3H85a1,1,0,0,0-1,1v9.9a5,5,0,0,1-5,5H77.2V76.8H75.1V91.2H73.4a5,5,0,0,1-5-5V76.4a1,1,0,0,0-1-1H62.5L70.7,49l-1.9-.6L64.3,62.8H61.6a2.8,2.8,0,0,1-2.7-3.6l4.8-15.3a5.6,5.6,0,0,1,5.4-4H83.2a5.6,5.6,0,0,1,5.4,4l4.9,15.5a2.6,2.6,0,0,1-.4,2.3A3.4,3.4,0,0,1,90.4,63Z"></path><path data-name="Compound Path" d="M76.2,37a7.5,7.5,0,1,0-7.5-7.5A7.5,7.5,0,0,0,76.2,37Zm0-13a5.5,5.5,0,1,1-5.5,5.5A5.5,5.5,0,0,1,76.2,24Z"></path><path data-name="Compound Path" d="M49.3,34.4a1,1,0,0,0,1.4,0l1.9-1.9c7.2-6.4,12.5-11,12.5-17a8.7,8.7,0,0,0-8.8-8.8A9.4,9.4,0,0,0,50,9.3a9.4,9.4,0,0,0-6.4-2.5,8.7,8.7,0,0,0-8.8,8.8c0,5.9,5.2,10.6,12.4,16.9ZM36.9,15.5a6.7,6.7,0,0,1,6.8-6.8,7.5,7.5,0,0,1,5.6,2.6,1,1,0,0,0,1.5,0,7.5,7.5,0,0,1,5.6-2.6,6.7,6.7,0,0,1,6.8,6.8c0,4.8-4.3,8.8-11.8,15.5L50,32.3,48.7,31C41.2,24.3,36.9,20.3,36.9,15.5Z"></path></g></svg>