<svg fill="#FFFFFF" xmlns="http://www.w3.org/2000/svg" xmlns:xlink="http://www.w3.org/1999/xlink" version="1.1" x="0px" y="0px" viewBox="0 0 100 100" style="enable-background:new 0 0 100 100;" xml:space="preserve"><style type="text/css">
	.st0{fill:none;stroke:#FFFFFF;stroke-width:2;stroke-linecap:round;stroke-linejoin:round;stroke-miterlimit:10;}
</style><path d="M33.8,35.8c-0.6,0-1,0.4-1,1V38c0,0.6,0.4,1,1,1s1-0.4,1-1v-1.2C34.8,36.2,34.4,35.8,33.8,35.8z"></path><path d="M29,35.8c-0.6,0-1,0.4-1,1V38c0,0.6,0.4,1,1,1s1-0.4,1-1v-1.2C30,36.2,29.5,35.8,29,35.8z"></path><path d="M33.8,40.5c-0.6,0-1,0.4-1,1v1.2c0,0.6,0.4,1,1,1s1-0.4,1-1v-1.2C34.8,41,34.4,40.5,33.8,40.5z"></path><path d="M29,40.5c-0.6,0-1,0.4-1,1v1.2c0,0.6,0.4,1,1,1s1-0.4,1-1v-1.2C30,41,29.5,40.5,29,40.5z"></path><path d="M33.8,45.3c-0.6,0-1,0.4-1,1v1.2c0,0.6,0.4,1,1,1s1-0.4,1-1v-1.2C34.8,45.7,34.4,45.3,33.8,45.3z"></path><path d="M29,45.3c-0.6,0-1,0.4-1,1v1.2c0,0.6,0.4,1,1,1s1-0.4,1-1v-1.2C30,45.7,29.5,45.3,29,45.3z"></path><path d="M33.8,50.1c-0.6,0-1,0.4-1,1v1.2c0,0.6,0.4,1,1,1s1-0.4,1-1v-1.2C34.8,50.6,34.4,50.1,33.8,50.1z"></path><path d="M29,50.1c-0.6,0-1,0.4-1,1v1.2c0,0.6,0.4,1,1,1s1-0.4,1-1v-1.2C30,50.6,29.5,50.1,29,50.1z"></path><path d="M33.8,54.9c-0.6,0-1,0.4-1,1v1.2c0,0.6,0.4,1,1,1s1-0.4,1-1v-1.2C34.8,55.3,34.4,54.9,33.8,54.9z"></path><path d="M29,54.9c-0.6,0-1,0.4-1,1v1.2c0,0.6,0.4,1,1,1s1-0.4,1-1v-1.2C30,55.3,29.5,54.9,29,54.9z"></path><path d="M55,42.9c0.6,0,1-0.4,1-1v-2.1c0-0.6-0.4-1-1-1s-1,0.4-1,1v2.1C54,42.4,54.4,42.9,55,42.9z"></path><path d="M50.7,42.9c0.6,0,1-0.4,1-1v-2.1c0-0.6-0.4-1-1-1s-1,0.4-1,1v2.1C49.7,42.4,50.2,42.9,50.7,42.9z"></path><path d="M46.5,42.9c0.6,0,1-0.4,1-1v-2.1c0-0.6-0.4-1-1-1s-1,0.4-1,1v2.1C45.5,42.4,46,42.9,46.5,42.9z"></path><path d="M55,51.5c0.6,0,1-0.4,1-1v-2.1c0-0.6-0.4-1-1-1s-1,0.4-1,1v2.1C54,51.1,54.4,51.5,55,51.5z"></path><path d="M50.7,51.5c0.6,0,1-0.4,1-1v-2.1c0-0.6-0.4-1-1-1s-1,0.4-1,1v2.1C49.7,51.1,50.2,51.5,50.7,51.5z"></path><path d="M46.5,51.5c0.6,0,1-0.4,1-1v-2.1c0-0.6-0.4-1-1-1s-1,0.4-1,1v2.1C45.5,51.1,46,51.5,46.5,51.5z"></path><path d="M55,60.2c0.6,0,1-0.4,1-1v-2.1c0-0.6-0.4-1-1-1s-1,0.4-1,1v2.1C54,59.7,54.4,60.2,55,60.2z"></path><path d="M50.7,60.2c0.6,0,1-0.4,1-1v-2.1c0-0.6-0.4-1-1-1s-1,0.4-1,1v2.1C49.7,59.7,50.2,60.2,50.7,60.2z"></path><path d="M46.5,60.2c0.6,0,1-0.4,1-1v-2.1c0-0.6-0.4-1-1-1s-1,0.4-1,1v2.1C45.5,59.7,46,60.2,46.5,60.2z"></path><path d="M55,68.8c0.6,0,1-0.4,1-1v-2.1c0-0.6-0.4-1-1-1s-1,0.4-1,1v2.1C54,68.4,54.4,68.8,55,68.8z"></path><path d="M50.7,68.8c0.6,0,1-0.4,1-1v-2.1c0-0.6-0.4-1-1-1s-1,0.4-1,1v2.1C49.7,68.4,50.2,68.8,50.7,68.8z"></path><path d="M46.5,68.8c0.6,0,1-0.4,1-1v-2.1c0-0.6-0.4-1-1-1s-1,0.4-1,1v2.1C45.5,68.4,46,68.8,46.5,68.8z"></path><path d="M55,77.5c0.6,0,1-0.4,1-1v-2.1c0-0.6-0.4-1-1-1s-1,0.4-1,1v2.1C54,77,54.4,77.5,55,77.5z"></path><path d="M50.7,77.5c0.6,0,1-0.4,1-1v-2.1c0-0.6-0.4-1-1-1s-1,0.4-1,1v2.1C49.7,77,50.2,77.5,50.7,77.5z"></path><path d="M46.5,77.5c0.6,0,1-0.4,1-1v-2.1c0-0.6-0.4-1-1-1s-1,0.4-1,1v2.1C45.5,77,46,77.5,46.5,77.5z"></path><path d="M90.2,83.4h-4.7v-2.7c1.7-0.5,2.9-2,2.9-3.8c0-1.3-0.6-2.5-1.6-3.2c0.6-0.6,1-1.4,1-2.4c0-1.8-1.5-3.4-3.4-3.4  s-3.4,1.5-3.4,3.4c0,0.9,0.4,1.8,1,2.4c-1,0.7-1.6,1.9-1.6,3.2c0,1.9,1.3,3.5,3.1,3.9v2.7H78V54.7c0-0.6-0.4-1-1-1h-3.7v-35  c0-0.6-0.4-1-1-1h-9.4v-5.6c0-0.6-0.4-1-1-1s-1,0.4-1,1v5.6H50.7c-0.6,0-1,0.4-1,1V32h-8.6c-0.6,0-1,0.4-1,1v27.8h-1.6V32.1  c0-0.6-0.4-1-1-1H25.3c-0.6,0-1,0.4-1,1v28.6h-2.1c-0.6,0-1,0.4-1,1v21.7h-4.9v-2.6c1.6-0.5,2.8-2,2.8-3.8c0-1.3-0.6-2.4-1.6-3.1  c0.6-0.6,0.9-1.4,0.9-2.3c0-1.8-1.5-3.3-3.3-3.3s-3.3,1.5-3.3,3.3c0,0.9,0.4,1.7,0.9,2.3c-1,0.7-1.6,1.9-1.6,3.1  c0,1.9,1.3,3.4,3,3.8v2.6h-3c-0.6,0-1,0.4-1,1s0.4,1,1,1h79c0.6,0,1-0.4,1-1S90.8,83.4,90.2,83.4z M84.4,69.9c0.7,0,1.4,0.6,1.4,1.4  s-0.6,1.4-1.4,1.4s-1.4-0.6-1.4-1.4S83.7,69.9,84.4,69.9z M82.4,76.8c0-1.1,0.9-2,2-2s2,0.9,2,2s-0.9,2-2,2S82.4,77.9,82.4,76.8z   M15.1,70.3c0.7,0,1.3,0.6,1.3,1.3c0,0.7-0.6,1.3-1.3,1.3c-0.7,0-1.3-0.6-1.3-1.3C13.8,70.8,14.4,70.3,15.1,70.3z M13.2,77  c0-1.1,0.9-1.9,1.9-1.9s1.9,0.9,1.9,1.9s-0.9,1.9-1.9,1.9S13.2,78.1,13.2,77z M71.9,83.4h-7.5v-8.6c0-2.1,1.7-3.8,3.7-3.8  s3.7,1.7,3.7,3.8V83.4z M68.2,68.9c-3.2,0-5.7,2.6-5.7,5.8v8.6h-1.7V67H76v16.4h-2.1v-8.6C73.9,71.6,71.3,68.9,68.2,68.9z M76,65  H60.7v-3.8H76V65z M76,59.2H60.7v-3.5H76V59.2z M51.7,19.6h19.6v34H60.7V33c0-0.6-0.4-1-1-1h-8V19.6z M58.7,34v20.7v28.7H42.1V34  H58.7z M26.3,33.1h10.3v27.6H26.3V33.1z M23.2,62.7h17v20.7h-2.6v-8.6c0-3.2-2.6-5.8-5.7-5.8c-3.2,0-5.7,2.6-5.7,5.8v8.6h-2.9V62.7z   M35.6,83.4h-7.5v-8.6c0-2.1,1.7-3.8,3.7-3.8c2.1,0,3.7,1.7,3.7,3.8V83.4z"></path><path d="M63.6,33.9h4.8c0.6,0,1-0.4,1-1s-0.4-1-1-1h-4.8c-0.6,0-1,0.4-1,1S63,33.9,63.6,33.9z"></path><path d="M63.6,38.3h4.8c0.6,0,1-0.4,1-1s-0.4-1-1-1h-4.8c-0.6,0-1,0.4-1,1S63,38.3,63.6,38.3z"></path><path d="M63.6,42.7h4.8c0.6,0,1-0.4,1-1s-0.4-1-1-1h-4.8c-0.6,0-1,0.4-1,1S63,42.7,63.6,42.7z"></path><path d="M63.6,24.6h4.8c0.6,0,1-0.4,1-1s-0.4-1-1-1h-4.8c-0.6,0-1,0.4-1,1S63,24.6,63.6,24.6z"></path><path d="M63.6,29h4.8c0.6,0,1-0.4,1-1s-0.4-1-1-1h-4.8c-0.6,0-1,0.4-1,1S63,29,63.6,29z"></path><path d="M54.7,24.6h4.8c0.6,0,1-0.4,1-1s-0.4-1-1-1h-4.8c-0.6,0-1,0.4-1,1S54.1,24.6,54.7,24.6z"></path><path d="M60.5,28c0-0.6-0.4-1-1-1h-4.8c-0.6,0-1,0.4-1,1s0.4,1,1,1h4.8C60,29,60.5,28.5,60.5,28z"></path><path d="M63.6,47.1h4.8c0.6,0,1-0.4,1-1s-0.4-1-1-1h-4.8c-0.6,0-1,0.4-1,1S63,47.1,63.6,47.1z"></path><path d="M63.6,51.4h4.8c0.6,0,1-0.4,1-1s-0.4-1-1-1h-4.8c-0.6,0-1,0.4-1,1S63,51.4,63.6,51.4z"></path></svg>