<svg fill="#FFFFFF" xmlns="http://www.w3.org/2000/svg" xmlns:xlink="http://www.w3.org/1999/xlink" version="1.1" x="0px" y="0px" viewBox="0 0 100 100" style="enable-background:new 0 0 100 100;" xml:space="preserve"><g><ellipse transform="matrix(0.9397 -0.342 0.342 0.9397 -14.8761 29.4092)" cx="76" cy="56.9" rx="2.6" ry="2.6"></ellipse><path d="M52.2,46.5c-0.2,0.1-0.4,0.2-0.7,0.2c1.3-2,2.4-4,3.2-6.1c1.4-3.5,2-7,1.8-10.2c-0.4-5.3-1.8-10.1-4-13.8   c-2.3-3.8-5.2-5.8-8.2-5.6c-0.5,0-1.1,0.2-1.6,0.3c-5.1,1.9-8.2,10.5-7.5,20.6c0.1,1.1,0.3,2.3,0.6,3.3c0,0,0,0,0,0   c-1.1-0.5-2.3-1-3.4-1.3C26.3,32.5,20,32.4,15.7,34c-3,1.1-4.9,2.9-5.5,5.1c-0.8,2.9,0.6,6.1,4,9.1c3.1,2.8,7.7,5.1,12.8,6.5   c3.4,0.9,7.3,0.9,11.4,0c-7.3,6.3-10.9,14.4-8.9,21.5l-6.1,2.2c-0.5,0.2-0.8,0.8-0.6,1.3c0.2,0.5,0.8,0.8,1.3,0.6l6.1-2.2   c4.6,10.1,20.6,13.8,36.5,8c16.4-6,26.5-19.7,22.5-30.6C85.2,44.6,68.6,40.6,52.2,46.5z M37.5,31.9c-0.3-4.5,0.1-8.9,1.3-12.3   c1.1-3.3,2.8-5.4,4.7-6.1c0.3-0.1,0.7-0.2,1-0.2c4.6-0.4,9.1,7.6,9.9,17.4c0.5,6.6-3.1,12.8-5.4,16c-0.3,0.1-0.7,0.3-1,0.5l0,0   c-1-1.6-2.6-3.9-4.8-6.2c-1.5-1.5-3-2.8-4.6-3.9C38,35.4,37.6,33.7,37.5,31.9z M27.5,52.6c-9.5-2.6-16.4-8.5-15.2-13   c0.5-2,2.6-3.1,4.2-3.7c3.9-1.4,9.7-1.3,15.5,0.2c7.2,2,12.2,8.7,14.2,11.9c-2.3,1.2-4.4,2.5-6.3,4C35.3,53.4,31.1,53.6,27.5,52.6z    M43.3,85.2c-5.9-1.4-10-4.6-11.6-8.8c-1.6-4.3-0.4-9.3,3.2-14.2c0.2-0.3,0.5-0.7,0.8-1c-0.9,4.4-0.6,9.1,1,13.4   c1.6,4.3,4.3,8.1,7.9,10.9C44.1,85.4,43.7,85.3,43.3,85.2z M50.5,86.8l-1.1-0.6c-5-2.6-8.8-7-10.7-12.3S36.8,62.8,39,57.6l0.5-1.2   c1.9-1.7,4.1-3.3,6.5-4.6c-1.4,2.7-2.4,5.7-2.7,8.8c-0.4,3.8,0,7.6,1.3,11.2C47,78.3,52,83.5,58.5,86.1   C55.8,86.6,53.1,86.8,50.5,86.8z M61.5,85.3C55,83.1,48.9,77.5,46.6,71c-2.4-6.5-1.3-14.7,2.2-20.5c0.5-0.3,4.1-1.8,4.2-1.8   c-1.2,2.5-2.4,6.4-2.8,9.1c-0.5,3.9,0,7.7,1.3,11.4c1.3,3.7,3.5,6.9,6.3,9.6c2,1.9,5.4,4.1,8,5.2C65.8,84.1,62,85.2,61.5,85.3z    M69.3,82.7l-1.2-0.4c-6.9-2.1-12.2-7.2-14.6-13.9s-1.6-14,2.3-20.1l0.7-1c1.7-0.5,3.5-0.8,5.2-1.1c-3.1,6.1-3.5,13.2-1.2,19.7   S67.7,77.6,74,80.3C72.5,81.2,70.9,82,69.3,82.7z M75.7,79c-6-2.4-11.1-7.7-13.3-13.7c-2.2-6-1.6-13.4,1.4-19.1   c1.2-0.2,2.4-0.2,3.6-0.3c-2,5.4-2.1,12.1-0.1,17.6s6.3,10.5,11.3,13.4C77.8,77.6,76.8,78.3,75.7,79z M83.8,71.4   c-1,1.3-2.1,2.6-3.3,3.8c-5.2-2.6-9.2-7-11.2-12.5c-2-5.5-1.8-11.4,0.5-16.8c1.7,0.1,3.4,0.4,5,0.8c6.3,1.5,10.6,4.9,12.3,9.5   S87.6,66.2,83.8,71.4z"></path></g></svg>