<svg fill="#FFFFFF" xmlns="http://www.w3.org/2000/svg" data-name="Layer 1" viewBox="0 0 100 100" x="0px" y="0px"><title>Building Icons</title><path d="M80,95H18a2,2,0,0,1-2-2V87a2,2,0,0,1,2-2H80a2,2,0,0,1,2,2v6A2,2,0,0,1,80,95ZM20,91H78V89H20Z"></path><path d="M77,89H21a2,2,0,0,1-2-2V80a2,2,0,0,1,2-2H77a2,2,0,0,1,2,2v7A2,2,0,0,1,77,89ZM23,85H75V82H23Z"></path><path d="M77,60H21a2,2,0,0,1-2-2V51a2,2,0,0,1,2-2H77a2,2,0,0,1,2,2v7A2,2,0,0,1,77,60ZM23,56H75V53H23Z"></path><path d="M27,82a2,2,0,0,1-2-2V58a2,2,0,0,1,4,0V80A2,2,0,0,1,27,82Z"></path><path d="M35,82a2,2,0,0,1-2-2V58a2,2,0,0,1,4,0V80A2,2,0,0,1,35,82Z"></path><path d="M45,82a2,2,0,0,1-2-2V58a2,2,0,0,1,4,0V80A2,2,0,0,1,45,82Z"></path><path d="M53,82a2,2,0,0,1-2-2V58a2,2,0,0,1,4,0V80A2,2,0,0,1,53,82Z"></path><path d="M63,82a2,2,0,0,1-2-2V58a2,2,0,0,1,4,0V80A2,2,0,0,1,63,82Z"></path><path d="M71,82a2,2,0,0,1-2-2V58a2,2,0,0,1,4,0V80A2,2,0,0,1,71,82Z"></path><path d="M67,42a2,2,0,0,1-2-2,15.87,15.87,0,0,0-1.33-6.39A2,2,0,0,1,67.34,32,19.85,19.85,0,0,1,69,40,2,2,0,0,1,67,42Z"></path><path d="M32.41,35a2,2,0,0,1-1.84-2.78A20,20,0,0,1,67.34,32a2,2,0,0,1-3.67,1.6,16,16,0,0,0-29.42.17A2,2,0,0,1,32.41,35Z"></path><path d="M31,42a2,2,0,0,1-2-2,19.89,19.89,0,0,1,1.57-7.79,2,2,0,1,1,3.68,1.56A15.92,15.92,0,0,0,33,40,2,2,0,0,1,31,42Z"></path><path d="M53,24a2,2,0,0,1-2-2V16H47v6a2,2,0,0,1-4,0V14a2,2,0,0,1,2-2h8a2,2,0,0,1,2,2v8A2,2,0,0,1,53,24Z"></path><path d="M49,16a2,2,0,0,1-2-2V7a2,2,0,0,1,4,0v7A2,2,0,0,1,49,16Z"></path><path d="M18,95H7a2,2,0,0,1-2-2V56a2,2,0,0,1,2-2H20a2,2,0,0,1,0,4H9V91h9a2,2,0,0,1,0,4Z"></path><path d="M93,95H81a2,2,0,0,1,0-4H91V58H79a2,2,0,0,1,0-4H93a2,2,0,0,1,2,2V93A2,2,0,0,1,93,95Z"></path><path d="M16,74a2,2,0,0,1-2-2V66a2,2,0,0,1,4,0v6A2,2,0,0,1,16,74Z"></path><path d="M82,74a2,2,0,0,1-2-2V66a2,2,0,0,1,4,0v6A2,2,0,0,1,82,74Z"></path><path d="M31,52a2,2,0,0,1-2-2V40a2,2,0,0,1,4,0V50A2,2,0,0,1,31,52Z"></path><path d="M67,52a2,2,0,0,1-2-2V40a2,2,0,0,1,4,0V50A2,2,0,0,1,67,52Z"></path><path d="M67,42H31a2,2,0,0,1,0-4H67a2,2,0,0,1,0,4Z"></path><path d="M39,53a2,2,0,0,1-2-2V40a2,2,0,0,1,.06-.48l1-4a2,2,0,1,1,3.88,1L41,40.25V51A2,2,0,0,1,39,53Z"></path><path d="M49,53a2,2,0,0,1-2-2V36a2,2,0,0,1,4,0V51A2,2,0,0,1,49,53Z"></path><path d="M59,53a2,2,0,0,1-2-2V40.25l-.94-3.76a2,2,0,1,1,3.88-1l1,4A2,2,0,0,1,61,40V51A2,2,0,0,1,59,53Z"></path></svg>