<svg fill="#FFFFFF" xmlns="http://www.w3.org/2000/svg" xmlns:xlink="http://www.w3.org/1999/xlink" version="1.1" x="0px" y="0px" viewBox="0 0 100 100" enable-background="new 0 0 100 100" xml:space="preserve"><g><path fill="#FFFFFF" d="M58.625,95.579c-3.217,0-6.408-0.461-9.502-1.369c-3.094,0.908-6.292,1.369-9.501,1.369   c-18.875,0-34.23-15.64-34.23-34.864c0-19.223,15.355-34.863,34.23-34.863c3.21,0,6.407,0.461,9.501,1.37   c3.094-0.909,6.286-1.37,9.502-1.37c18.874,0,34.229,15.64,34.229,34.863C92.854,79.939,77.499,95.579,58.625,95.579z    M49.123,90.835c0.161,0,0.329,0.024,0.49,0.074c2.926,0.909,5.956,1.37,9.012,1.37c17.05,0,30.929-14.159,30.929-31.564   c0-17.403-13.879-31.563-30.929-31.563c-3.057,0-6.086,0.461-9.012,1.37c-0.322,0.1-0.658,0.1-0.98,0   c-2.933-0.909-5.963-1.37-9.012-1.37c-17.057,0-30.929,14.159-30.929,31.563c0,17.405,13.872,31.564,30.929,31.564   c3.049,0,6.079-0.461,9.012-1.37C48.794,90.859,48.955,90.835,49.123,90.835z"></path></g><g><path fill="#FFFFFF" d="M49.123,30.596c-0.045,0-0.097-0.001-0.148-0.006c-0.909-0.079-1.58-0.88-1.496-1.789   c0.013-0.2,2.024-20.048,25.244-24.776c0.87-0.182,1.76,0.393,1.947,1.288c0.18,0.893-0.4,1.765-1.29,1.945   c-20.834,4.243-22.601,21.658-22.613,21.833C50.689,29.95,49.967,30.596,49.123,30.596z"></path></g><g><path fill="#FFFFFF" d="M44.307,24.281L44.307,24.281c-12.938,0-17.16-9.84-17.334-10.258c-0.167-0.406-0.167-0.862,0-1.267   c0.174-0.406,0.497-0.727,0.903-0.893c2.533-1.034,5.015-1.558,7.387-1.558c10.875,0,15.788,10.62,15.987,11.071   c0.206,0.458,0.193,0.985-0.032,1.431c-0.231,0.446-0.651,0.766-1.141,0.865C48.079,24.076,46.138,24.281,44.307,24.281z    M30.886,14.292c1.586,2.384,5.537,6.688,13.421,6.688l0,0c0.909,0,1.85-0.058,2.817-0.172c-1.779-2.68-5.699-7.202-11.861-7.202   C33.864,13.605,32.395,13.836,30.886,14.292z"></path></g><g><path fill="#FFFFFF" d="M63.563,21.525c-0.381,0-0.761-0.129-1.07-0.393c-4.789-4.069-3.791-10.272-3.745-10.535   c0.155-0.901,1.031-1.497,1.908-1.347c0.896,0.153,1.495,1.002,1.347,1.897l0,0c-0.025,0.188-0.702,4.638,2.631,7.471   c0.689,0.59,0.773,1.631,0.187,2.325C64.49,21.327,64.026,21.525,63.563,21.525z"></path></g><g><path fill="#FFFFFF" d="M19.521,67.929c-0.09,0-0.438-0.029-0.535-0.046c-0.999-0.172-2.785-1.005-3.5-4.652   c-0.432-2.177-0.4-4.933,0.09-7.762c0.909-5.277,3.372-10.602,6.827-10.602c0.097,0,0.445,0.029,0.535,0.045   c0.999,0.172,2.785,1.006,3.507,4.652c0.425,2.177,0.393,4.933-0.09,7.76C25.446,62.602,22.977,67.929,19.521,67.929z    M22.345,48.154c-0.561,0.102-2.617,2.654-3.513,7.876c-0.883,5.128,0.142,8.201,0.716,8.591c0.67-0.181,2.668-2.734,3.552-7.857   C24.001,51.539,22.912,48.447,22.345,48.154z"></path></g></svg>