<svg fill="#FFFFFF" xmlns:dc="http://purl.org/dc/elements/1.1/" xmlns:cc="http://creativecommons.org/ns#" xmlns:rdf="http://www.w3.org/1999/02/22-rdf-syntax-ns#" xmlns:svg="http://www.w3.org/2000/svg" xmlns="http://www.w3.org/2000/svg" xmlns:sodipodi="http://sodipodi.sourceforge.net/DTD/sodipodi-0.dtd" xmlns:inkscape="http://www.inkscape.org/namespaces/inkscape" viewBox="0 0 32 32.000001" version="1.1" x="0px" y="0px"><g transform="translate(0,-1020.3622)"><path style="color:#000000;font-style:normal;font-variant:normal;font-weight:normal;font-stretch:normal;font-size:medium;line-height:normal;font-family:sans-serif;text-indent:0;text-align:start;text-decoration:none;text-decoration-line:none;text-decoration-style:solid;text-decoration-color:#000000;letter-spacing:normal;word-spacing:normal;text-transform:none;direction:ltr;block-progression:tb;writing-mode:lr-tb;baseline-shift:baseline;text-anchor:start;white-space:normal;clip-rule:nonzero;display:inline;overflow:visible;visibility:visible;opacity:1;isolation:auto;mix-blend-mode:normal;color-interpolation:sRGB;color-interpolation-filters:linearRGB;solid-color:#000000;solid-opacity:1;fill:#FFFFFF;fill-opacity:1;fill-rule:nonzero;stroke:none;stroke-width:0.99999994px;stroke-linecap:round;stroke-linejoin:round;stroke-miterlimit:4;stroke-dasharray:none;stroke-dashoffset:0;stroke-opacity:1;color-rendering:auto;image-rendering:auto;shape-rendering:auto;text-rendering:auto;enable-background:accumulate" d="M 17.072266 0.07421875 L 16.945312 1.0722656 L 17.181641 1.1015625 L 17.753906 1.2285156 L 17.767578 1.2285156 L 17.837891 1.2519531 L 18.134766 0.296875 L 18.023438 0.26171875 L 17.980469 0.25195312 L 17.367188 0.1171875 L 17.324219 0.10742188 L 17.072266 0.07421875 z M 14.949219 0.080078125 L 14.644531 0.11914062 L 14.603516 0.12890625 L 13.990234 0.265625 L 13.947266 0.27539062 L 13.886719 0.29492188 L 14.185547 1.25 L 14.240234 1.2304688 L 14.248047 1.2304688 L 14.796875 1.109375 L 15.082031 1.0722656 L 14.949219 0.080078125 z M 11.943359 1.1347656 L 11.595703 1.3554688 L 11.5625 1.3769531 L 11.087891 1.7304688 L 11.6875 2.5332031 L 12.126953 2.2011719 L 12.138672 2.1914062 L 12.472656 1.984375 L 11.943359 1.1347656 z M 20.076172 1.1621094 L 19.548828 2.0019531 L 19.841797 2.1835938 L 19.851562 2.1933594 L 20.292969 2.5214844 L 20.300781 2.53125 L 20.310547 2.5410156 L 20.388672 2.4335938 L 20.960938 1.7832031 L 20.9375 1.7636719 L 20.90625 1.7363281 L 20.412109 1.3710938 L 20.378906 1.3476562 L 20.076172 1.1621094 z M 16 2 C 12.867145 2 10.320312 4.5672969 10.320312 7.7167969 C 10.320313 9.4473969 11.189482 10.615791 11.957031 11.775391 C 12.410059 12.459816 12.836459 13.150352 13.113281 14.001953 L 12.740234 13.820312 L 12.736328 13.820312 L 12.435547 13.638672 L 11.917969 14.494141 L 12.222656 14.677734 L 12.261719 14.697266 L 12.839844 14.982422 L 13.191406 14.263672 C 13.332655 14.775412 13.421131 15.346123 13.425781 16.009766 A 0.50004997 0.50004997 0 0 0 13.427734 16.146484 L 13.427734 18.576172 A 0.50004997 0.50004997 0 0 0 13.4375 18.673828 A 0.50004997 0.50004997 0 0 0 13.4375 18.675781 A 0.50004997 0.50004997 0 0 0 13.544922 18.896484 A 0.50004997 0.50004997 0 0 0 13.544922 18.898438 A 0.50004997 0.50004997 0 0 0 13.927734 19.076172 L 15.533203 19.076172 L 15.533203 23.603516 C 14.660581 21.761912 12.798275 20.501635 10.662109 20.5 A 0.50004997 0.50004997 0 0 0 10.660156 20.5 C 10.021758 20.5 9.3892201 20.618897 8.7910156 20.841797 A 0.50004997 0.50004997 0 0 0 8.46875 21.365234 C 8.7784137 24.091834 11.093776 26.160109 13.837891 26.162109 A 0.50004997 0.50004997 0 0 0 13.839844 26.162109 C 14.417182 26.162109 14.986501 26.05425 15.533203 25.871094 L 15.533203 32 L 16.533203 32 L 16.533203 28.210938 C 17.074906 28.392111 17.638848 28.4981 18.210938 28.5 A 0.50004997 0.50004997 0 0 0 18.212891 28.5 C 20.931252 28.5 23.224569 26.451 23.53125 23.75 A 0.50004997 0.50004997 0 0 0 23.208984 23.224609 C 22.616398 23.003809 21.989824 22.888919 21.357422 22.886719 A 0.50004997 0.50004997 0 0 0 21.353516 22.886719 C 19.239768 22.886719 17.398249 24.133557 16.533203 25.955078 L 16.533203 19.076172 L 18.072266 19.076172 A 0.50004997 0.50004997 0 0 0 18.123047 19.072266 A 0.50004997 0.50004997 0 0 0 18.220703 19.052734 A 0.50004997 0.50004997 0 0 0 18.572266 18.576172 L 18.572266 16.144531 A 0.50004997 0.50004997 0 0 0 18.574219 16.003906 C 18.579481 15.325631 18.670935 14.742937 18.818359 14.222656 L 19.1875 14.96875 L 19.765625 14.683594 L 19.804688 14.662109 L 20.0625 14.503906 L 19.542969 13.650391 L 19.302734 13.796875 L 18.886719 14.001953 C 19.163541 13.150352 19.58994 12.459816 20.042969 11.775391 C 20.810521 10.615791 21.679688 9.4473969 21.679688 7.7167969 C 21.679688 4.5672969 19.132845 2 16 2 z M 16 3 C 18.588523 3 20.679687 5.1038969 20.679688 7.7167969 C 20.679688 9.1163969 19.995356 10.036609 19.208984 11.224609 C 18.492765 12.306709 17.797612 13.671953 17.666016 15.564453 L 16.5 15.564453 L 16.5 12.376953 A 0.50004997 0.50004997 0 1 0 15.5 12.376953 L 15.5 15.564453 L 14.333984 15.564453 C 14.202388 13.671953 13.507232 12.306709 12.791016 11.224609 C 12.004647 10.036609 11.320313 9.1163969 11.320312 7.7167969 C 11.320312 5.1038969 13.411465 3 16 3 z M 9.609375 3.3066406 L 9.3398438 3.7109375 L 9.3164062 3.7441406 L 9.0664062 4.1972656 L 9.9394531 4.6816406 L 10.177734 4.2519531 L 10.439453 3.8691406 L 9.609375 3.3066406 z M 22.402344 3.328125 L 21.576172 3.890625 L 21.802734 4.2265625 L 22.074219 4.7070312 L 22.945312 4.2167969 L 22.667969 3.7207031 L 22.644531 3.6855469 L 22.402344 3.328125 z M 8.34375 6.1953125 L 8.3398438 6.2070312 L 8.3300781 6.25 L 8.2265625 6.8867188 L 8.2207031 6.9296875 L 8.1953125 7.2695312 L 9.1933594 7.34375 L 9.21875 7.015625 L 9.3085938 6.453125 L 9.3105469 6.4414062 L 9.3125 6.4414062 L 9.3164062 6.4160156 L 8.9921875 6.359375 L 8.34375 6.1953125 z M 23.669922 6.2578125 L 22.683594 6.4238281 L 22.779297 6.9960938 L 22.808594 7.3710938 L 23.806641 7.2910156 L 23.775391 6.8984375 L 23.769531 6.8554688 L 23.669922 6.2578125 z M 9.3144531 9.1992188 L 8.3320312 9.3867188 L 8.3613281 9.546875 L 8.3710938 9.5878906 L 8.5332031 10.181641 L 8.546875 10.222656 L 8.6230469 10.429688 L 9.5625 10.085938 L 9.4882812 9.8828125 L 9.4863281 9.8710938 L 9.3417969 9.3417969 L 9.3144531 9.1992188 z M 22.679688 9.2304688 L 22.662109 9.3242188 L 22.513672 9.8789062 L 22.509766 9.8925781 L 22.429688 10.109375 L 23.369141 10.451172 L 23.462891 10.193359 L 23.474609 10.152344 L 23.636719 9.5585938 L 23.644531 9.5175781 L 23.664062 9.4082031 L 22.679688 9.2304688 z M 10.417969 11.744141 L 9.59375 12.3125 L 9.7246094 12.503906 L 9.75 12.537109 L 10.140625 13.013672 L 10.169922 13.046875 L 10.273438 13.154297 L 10.992188 12.457031 L 10.896484 12.357422 L 10.886719 12.347656 L 10.539062 11.921875 L 10.417969 11.744141 z M 21.568359 11.767578 L 21.474609 11.904297 L 21.466797 11.916016 L 21.117188 12.34375 L 20.990234 12.476562 L 21.710938 13.169922 L 21.851562 13.023438 L 21.878906 12.992188 L 22.267578 12.513672 L 22.292969 12.480469 L 22.394531 12.330078 L 21.568359 11.767578 z M 14.427734 16.564453 L 15.908203 16.564453 A 0.50004997 0.50004997 0 0 0 16.082031 16.564453 L 17.572266 16.564453 L 17.572266 18.076172 L 14.427734 18.076172 L 14.427734 16.564453 z M 10.662109 21.5 L 10.664062 21.5 C 12.747543 21.5 14.458529 22.97655 14.902344 24.96875 C 14.551326 25.05875 14.20141 25.160809 13.837891 25.162109 C 11.752928 25.162109 10.040961 23.687059 9.5976562 21.693359 C 9.9486722 21.603359 10.298586 21.5014 10.662109 21.5 z M 21.353516 23.886719 L 21.355469 23.886719 C 21.713016 23.886719 22.056997 23.990125 22.402344 24.078125 C 21.961733 26.044625 20.272541 27.4976 18.214844 27.5 C 17.856678 27.5 17.511953 27.398647 17.166016 27.310547 C 17.606626 25.343947 19.295817 23.889219 21.353516 23.886719 z " transform="translate(0,1020.3622)"></path></g></svg>