<svg width="24" height="24" xmlns="http://www.w3.org/2000/svg">
  <title/>

  <g>
    <title>background</title>
    <rect fill="none" id="canvas_background" height="402" width="582" y="-1" x="-1"/>
  </g>
  <g>
    <title>Layer 1</title>
    <path fill="none" stroke="#ffffff" stroke-linecap="round" stroke-linejoin="round" id="_Path_" d="m2,3.5a13.62,13.62 0 0 0 10,5c-0.26,-1.06 -0.28,-3.94 1.74,-5.14a5.24,5.24 0 0 1 2.76,-0.86a4.65,4.65 0 0 1 3.41,1.5a10.5,10.5 0 0 0 3,-1.14a4.57,4.57 0 0 1 -2,2.57a8.77,8.77 0 0 0 2.66,-0.66a9.3,9.3 0 0 1 -2.38,2.43c0.71,6.37 -5,14.29 -13.12,14.29a14.76,14.76 0 0 1 -7.5,-2a9.3,9.3 0 0 0 7,-2a5.82,5.82 0 0 1 -5,-3.5c1,0.32 1.95,0.48 2.5,0a5.41,5.41 0 0 1 -4.07,-4.99a3.51,3.51 0 0 0 2.5,1a5,5 0 0 1 -1.5,-6.5z"/>
  </g>
</svg>
