<svg width="24" height="24" xmlns="http://www.w3.org/2000/svg">
  <title/>

  <g>
    <title>background</title>
    <rect fill="none" id="canvas_background" height="402" width="582" y="-1" x="-1"/>
  </g>
  <g>
    <title>Layer 1</title>
    <path fill="none" stroke="#ffffff" stroke-linecap="round" stroke-linejoin="round" id="_Path_" d="m21,1.5l-18,0a1.5,1.5 0 0 0 -1.5,1.5l0,18a1.5,1.5 0 0 0 1.5,1.5l8.5,0l0,-8l-2,0l0,-3l2,0l0,-2a4,4 0 0 1 4,-4l3,0l0,3l-3,0a1,1 0 0 0 -1,1l0,2l4,0l-0.5,3l-3.5,0l0,8l6.5,0a1.5,1.5 0 0 0 1.5,-1.5l0,-18a1.5,1.5 0 0 0 -1.5,-1.5z"/>
  </g>
</svg>
