<svg width="24" height="24" xmlns="http://www.w3.org/2000/svg">
  <title/>

  <g>
    <title>background</title>
    <rect fill="none" id="canvas_background" height="402" width="582" y="-1" x="-1"/>
  </g>
  <g>
    <title stroke="#ffffff">Layer 1</title>
    <circle fill="none" stroke="#ffffff" stroke-linecap="round" stroke-linejoin="round" r="1.5" id="_Path_" cy="6" cx="6"/>
    <rect fill="none" stroke="#ffffff" stroke-linecap="round" stroke-linejoin="round" y="9.5" x="4.5" width="3" id="_Rectangle_" height="10"/>
    <path fill="none" stroke="#ffffff" stroke-linecap="round" stroke-linejoin="round" id="_Path_2" d="m15.5,9.5a3.6,3.6 0 0 0 -3,1.5l0,-1.5l-3,0l0,10l3,0l0,-5.5c0,-1.66 0.89,-2.5 2,-2.5s2,0.84 2,2.5l0,5.5l3,0l0,-5.5c0,-2.73 -1.5,-4.5 -4,-4.5z"/>
    <rect fill="none" stroke="#ffffff" stroke-linecap="round" stroke-linejoin="round" y="1.5" x="1.5" width="21" ry="1.5" rx="1.5" id="_Rectangle_2" height="21"/>
  </g>
</svg>
